<svg width="24" height="24" viewBox="0 0 24 24" fill="none" xmlns="http://www.w3.org/2000/svg">
<g id="About">
<g id="Page-1">
<g id="about-white">
<path id="Shape" fill-rule="evenodd" clip-rule="evenodd" d="M12 3C6.47717 3 3 6.47711 3 12C3 17.5228 6.47717 21 12 21C17.5229 21 21 17.5228 21 12C21 6.47711 17.5229 3 12 3ZM12 20C7.58881 20 4 16.4112 4 12C4 7.58881 7.58881 4 12 4C16.4112 4 20 7.58881 20 12C20 16.4112 16.4112 20 12 20ZM13.2522 8C13.2522 8.72504 12.7243 9.25 12.0102 9.25C11.2671 9.25 10.7522 8.72504 10.7522 7.98613C10.7522 7.27595 11.2811 6.75 12.0102 6.75C12.7243 6.75 13.2522 7.27595 13.2522 8ZM11.0022 11H13.0022V17H11.0022V11Z" fill="#0D0000"/>
</g>
</g>
</g>
</svg>
