<svg width="24" height="24" viewBox="0 0 24 24" fill="none" xmlns="http://www.w3.org/2000/svg">
<g id="Add User">
<g id="Iconly/Bold/Add-User">
<g id="Add-User">
<path id="Vector" d="M9.5 15.0152C13.5668 15.0152 17 15.6844 17 18.2687C17 20.8531 13.5448 21.5 9.5 21.5C5.4332 21.5 2 20.8298 2 18.2464C2 15.6621 5.45422 15.0152 9.5 15.0152ZM18.999 7.5C19.4952 7.5 19.8979 7.90945 19.8979 8.41162V9.58786H21.101C21.5962 9.58786 22 9.99731 22 10.4995C22 11.0016 21.5962 11.4111 21.101 11.4111H19.8979V12.5884C19.8979 13.0906 19.4952 13.5 18.999 13.5C18.5038 13.5 18.1 13.0906 18.1 12.5884V11.4111H16.899C16.4027 11.4111 16 11.0016 16 10.4995C16 9.99731 16.4027 9.58786 16.899 9.58786H18.1V8.41162C18.1 7.90945 18.5038 7.5 18.999 7.5ZM9.5 2.5C12.2546 2.5 14.4626 4.73663 14.4626 7.52684C14.4626 10.3171 12.2546 12.5537 9.5 12.5537C6.74543 12.5537 4.53737 10.3171 4.53737 7.52684C4.53737 4.73663 6.74543 2.5 9.5 2.5Z" fill="black"/>
</g>
</g>
</g>
</svg>
