<svg width="24" height="24" viewBox="0 0 24 24" fill="none" xmlns="http://www.w3.org/2000/svg">
<g id="Bedroom">
<path id="Vector" d="M2.8005 16.8413H1.5V19.0418H2.8005V16.8413Z" stroke="#0D0000" stroke-width="0.8" stroke-miterlimit="2" stroke-linecap="round" stroke-linejoin="round"/>
<path id="Vector_2" d="M22.5 16.8413H21.1995V19.0418H22.5V16.8413Z" stroke="#0D0000" stroke-width="0.8" stroke-miterlimit="2" stroke-linecap="round" stroke-linejoin="round"/>
<path id="Vector_3" fill-rule="evenodd" clip-rule="evenodd" d="M1.5 12.7034V15.6839H22.5V12.7034C22.5 12.1552 22.0545 11.7104 21.5062 11.7104H2.49375C1.9455 11.7104 1.5 12.1552 1.5 12.7034Z" stroke="#0D0000" stroke-width="0.8" stroke-miterlimit="2" stroke-linecap="round" stroke-linejoin="round"/>
<path id="Vector_4" fill-rule="evenodd" clip-rule="evenodd" d="M3.23401 6.6465V11.7105H20.766V6.6465C20.766 5.715 20.394 4.95825 19.9365 4.95825H4.06351C3.60601 4.95825 3.23401 5.715 3.23401 6.6465Z" stroke="#0D0000" stroke-width="0.8" stroke-miterlimit="2" stroke-linecap="round" stroke-linejoin="round"/>
<path id="Vector_5" d="M22.5 15.6841H1.5V16.8413H22.5V15.6841Z" stroke="#0D0000" stroke-width="0.8" stroke-miterlimit="2" stroke-linecap="round" stroke-linejoin="round"/>
<path id="Vector_6" fill-rule="evenodd" clip-rule="evenodd" d="M10.9372 10.0261C10.9372 9.71634 10.6859 9.46509 10.3762 9.46509H5.47494C5.16519 9.46509 4.91394 9.71634 4.91394 10.0261V11.1488C4.91394 11.4586 5.16519 11.7106 5.47494 11.7106H10.3762C10.6859 11.7106 10.9372 11.4586 10.9372 11.1488V10.0261Z" stroke="#0D0000" stroke-width="0.8" stroke-miterlimit="2" stroke-linecap="round" stroke-linejoin="round"/>
<path id="Vector_7" fill-rule="evenodd" clip-rule="evenodd" d="M19.086 10.0261C19.086 9.71634 18.8347 9.46509 18.525 9.46509H13.6237C13.314 9.46509 13.0627 9.71634 13.0627 10.0261V11.1488C13.0627 11.4586 13.314 11.7106 13.6237 11.7106H18.525C18.8347 11.7106 19.086 11.4586 19.086 11.1488V10.0261Z" stroke="#0D0000" stroke-width="0.8" stroke-miterlimit="2" stroke-linecap="round" stroke-linejoin="round"/>
</g>
</svg>
