<svg width="24" height="24" viewBox="0 0 24 24" fill="none" xmlns="http://www.w3.org/2000/svg">
<g id="Camera">
<g id="Iconly/Light-Outline/Camera">
<g id="Camera_2">
<path id="Combined-Shape" d="M15.3176 3.35442C15.9012 3.58673 16.3139 4.00545 16.6839 4.61932L16.8058 4.83118L17.258 5.69833L17.2729 5.72254L17.2864 5.74362L17.3248 5.79613C17.5308 6.02063 17.8756 6.15626 18.1032 6.15626C20.188 6.15626 21.8908 7.79352 21.9952 9.85179L22.0002 10.0523V15.8473C22.0002 18.5193 19.8901 20.6997 17.2458 20.8127L17.0302 20.8173H6.97024C4.29758 20.8173 2.11771 18.7074 2.00484 16.0628L2.00024 15.8473V10.0523C2.00024 7.90085 3.74522 6.15626 5.89724 6.15626C6.12402 6.15626 6.46932 6.02043 6.67568 5.79613L6.68279 5.78775L6.69169 5.77609L6.74312 5.69721L7.19406 4.83146C7.59601 4.10093 8.03328 3.61258 8.68213 3.35433C9.87113 2.88155 14.1295 2.88155 15.3176 3.35442ZM9.2366 4.74809C9.01521 4.83621 8.81477 5.04017 8.60086 5.39376L8.50826 5.55456L8.1234 6.29866L8.02868 6.47009C7.9496 6.60161 7.87051 6.71264 7.78019 6.81105C7.31977 7.31151 6.65871 7.60056 6.07106 7.64898L5.89724 7.65626L5.73315 7.66179C4.54022 7.74245 3.58646 8.69598 3.50577 9.88825L3.50024 10.0523V15.8473C3.50024 17.6995 4.95198 19.2133 6.77986 19.3121L6.97024 19.3173H17.0302C18.8822 19.3173 20.3962 17.8649 20.4951 16.0376L20.5002 15.8473V10.0523C20.5002 8.78447 19.5145 7.74611 18.2673 7.66179L18.1032 7.65626L17.9291 7.64898C17.3406 7.60055 16.6795 7.31142 16.2197 6.81038C16.1306 6.71328 16.0519 6.60304 15.9733 6.47263L15.9544 6.4403L15.9319 6.40014L15.8158 6.1824L15.4919 5.55484C15.2732 5.15773 15.0729 4.91503 14.8566 4.79307L14.7629 4.74809L14.6436 4.70842C13.6144 4.41754 10.0347 4.43076 9.2366 4.74809ZM11.9999 9.19896C14.1702 9.19896 15.9289 10.9577 15.9289 13.128C15.9289 15.2982 14.1702 17.057 11.9999 17.057C9.82973 17.057 8.07094 15.2982 8.07094 13.128C8.07094 10.9577 9.82973 9.19896 11.9999 9.19896ZM11.9999 10.699C10.6582 10.699 9.57094 11.7862 9.57094 13.128C9.57094 14.4697 10.6582 15.557 11.9999 15.557C13.3417 15.557 14.4289 14.4697 14.4289 13.128C14.4289 11.7862 13.3417 10.699 11.9999 10.699ZM17.5045 8.49996C18.0568 8.49996 18.5045 8.94767 18.5045 9.49996C18.5045 10.0128 18.1185 10.4355 17.6212 10.4932L17.5045 10.5C16.9433 10.5 16.4955 10.0522 16.4955 9.49996C16.4955 8.98712 16.8816 8.56445 17.3789 8.50668L17.5045 8.49996Z" fill="#0D0000"/>
</g>
</g>
</g>
</svg>
