<svg width="24" height="24" viewBox="0 0 24 24" fill="none" xmlns="http://www.w3.org/2000/svg">
<g id="Camera">
<g id="Iconly/Bold/Camera">
<g id="Camera_2">
<path id="Vector" d="M14.35 3C15.32 3.00999 16.11 3.50943 16.57 4.40844C16.6887 4.64567 16.8544 4.99216 17.0278 5.35767L17.2372 5.79964L17.34 6.01665L17.44 6.2364C17.48 6.30633 17.55 6.35627 17.64 6.35627C20.04 6.35627 22 8.3141 22 10.7114V16.6448C22 19.0422 20.04 21 17.64 21H6.36C3.95 21 2 19.0422 2 16.6448V10.7114C2 8.3141 3.95 6.35627 6.36 6.35627C6.44 6.35627 6.52 6.31632 6.55 6.2364L6.61 6.11654C6.89 5.52719 7.23 4.80799 7.43 4.40844C7.89 3.50943 8.67 3.00999 9.64 3H14.35ZM12 9.40289C10.95 9.40289 9.96 9.81243 9.21 10.5616C8.47 11.3108 8.06 12.2897 8.07 13.3285C8.07 14.3774 8.48 15.3563 9.22 16.1054C9.97 16.8446 10.95 17.2542 12 17.2542C13.08 17.2542 14.06 16.8147 14.77 16.1054C15.48 15.3962 15.92 14.4173 15.93 13.3285C15.93 12.2897 15.52 11.3008 14.78 10.5516C14.04 9.81243 13.05 9.40289 12 9.40289ZM12 10.9012C12.65 10.9012 13.26 11.1509 13.72 11.6104C14.18 12.0699 14.43 12.6792 14.43 13.3285C14.42 14.667 13.34 15.7558 12 15.7558C11.35 15.7558 10.74 15.5061 10.28 15.0466C9.82 14.5871 9.57 13.9778 9.57 13.3285V13.3185C9.56 12.6892 9.81 12.0799 10.27 11.6204C10.74 11.1509 11.35 10.9012 12 10.9012ZM17.61 9.16315C17.11 9.16315 16.71 9.5727 16.71 10.0721C16.71 10.5716 17.11 10.9711 17.61 10.9711C18.11 10.9711 18.52 10.5716 18.52 10.0721C18.52 9.5727 18.11 9.16315 17.61 9.16315Z" fill="black"/>
</g>
</g>
</g>
</svg>
