<svg width="24" height="24" viewBox="0 0 24 24" fill="none" xmlns="http://www.w3.org/2000/svg">
<g id="Celcius">
<g id="Layer_2">
<g id="Group">
<path id="Vector" d="M15 21C11.7 21 9 18.3 9 15V9C9 5.7 11.7 3 15 3C18.3 3 21 5.7 21 9C21 9.6 20.6 10 20 10C19.4 10 19 9.6 19 9C19 6.8 17.2 5 15 5C12.8 5 11 6.8 11 9V15C11 17.2 12.8 19 15 19C17.2 19 19 17.2 19 15C19 14.4 19.4 14 20 14C20.6 14 21 14.4 21 15C21 18.3 18.3 21 15 21Z" fill="#0D0000"/>
</g>
<g id="Group_2">
<path id="Vector_2" d="M5.5 8C4.1 8 3 6.9 3 5.5C3 4.1 4.1 3 5.5 3C6.9 3 8 4.1 8 5.5C8 6.9 6.9 8 5.5 8ZM5.5 5C5.2 5 5 5.2 5 5.5C5 5.8 5.2 6 5.5 6C5.8 6 6 5.8 6 5.5C6 5.2 5.8 5 5.5 5Z" fill="#0D0000"/>
</g>
</g>
</g>
</svg>
