<svg width="24" height="24" viewBox="0 0 24 24" fill="none" xmlns="http://www.w3.org/2000/svg">
<g id="CO2" clip-path="url(#clip0_128_967)">
<g id="Group">
<path id="Vector" d="M7.97146 4.73406C7.48518 4.62995 6.87781 4.55615 6.18235 4.55615C2.75531 4.55615 0 6.70648 0 10.5707C0 13.7962 2.01598 16.2326 5.93049 16.2326C6.67276 16.2326 7.32227 16.1592 7.83735 16.0551C8.40163 15.9407 8.76857 15.3932 8.65953 14.8277C8.55249 14.2745 8.02272 13.9107 7.46947 14.0092C7.0996 14.0748 6.69815 14.116 6.31678 14.116C4.03187 14.116 2.6881 12.6876 2.6881 10.4195C2.6881 7.89955 4.26732 6.67299 6.30004 6.67299C6.73219 6.67299 7.12222 6.71893 7.46836 6.79035C8.03137 6.90637 8.587 6.56038 8.72968 6.0034L8.73794 5.97063C8.80634 5.70448 8.76293 5.4223 8.61819 5.189C8.47345 4.95554 8.23999 4.79144 7.97146 4.73406Z" fill="#0D0000"/>
<path id="Vector_2" d="M15.0005 4.55615C11.6572 4.55615 9.48999 7.09332 9.48999 10.4866C9.48999 13.7123 11.4554 16.2493 14.8156 16.2493C18.1253 16.2493 20.3767 13.9981 20.3767 10.2853C20.3767 7.16046 18.4779 4.55615 15.0005 4.55615ZM14.9501 14.2162C13.2363 14.2162 12.1948 12.6539 12.1948 10.4361C12.1948 8.23562 13.2028 6.58919 14.9332 6.58919C16.6974 6.58919 17.6718 8.33616 17.6718 10.3693C17.6718 12.5698 16.6806 14.2162 14.9501 14.2162Z" fill="#0D0000"/>
<path id="Vector_3" d="M23.4751 18.3944H21.9435V18.3776L22.4471 17.9581C23.2361 17.2531 23.8992 16.5228 23.8992 15.6079C23.8992 14.6172 23.2194 13.8955 21.9853 13.8955C21.4502 13.8955 20.968 14.0275 20.5867 14.2186C20.3582 14.333 20.2545 14.6029 20.3484 14.8403L20.3603 14.8702C20.4065 14.9876 20.4997 15.0798 20.6174 15.1252C20.7351 15.1703 20.8663 15.1637 20.9791 15.1076C21.1993 14.9986 21.4523 14.9194 21.7254 14.9194C22.3549 14.9194 22.6235 15.2721 22.6235 15.717C22.6067 16.3551 22.0276 16.9678 20.8356 18.0335L20.3033 18.5154C20.1934 18.615 20.1306 18.7561 20.1306 18.9044C20.1306 19.2022 20.3722 19.4437 20.6699 19.4437H23.4752C23.7652 19.4437 24.0001 19.2087 24.0001 18.9192C24 18.6293 23.7651 18.3944 23.4751 18.3944Z" fill="#0D0000"/>
</g>
</g>
<defs>
<clipPath id="clip0_128_967">
<rect width="24" height="24" fill="white"/>
</clipPath>
</defs>
</svg>
