<svg width="57" height="58" viewBox="0 0 57 58" fill="none" xmlns="http://www.w3.org/2000/svg">
<g id="Cross" filter="url(#filter0_d_20_475)">
<path id="Vector" d="M26.2888 17.6742C25.9959 17.3813 25.521 17.3813 25.2281 17.6742C24.9352 17.9671 24.9352 18.442 25.2281 18.7349L26.2888 17.6742ZM30.4498 23.9566C30.7427 24.2495 31.2176 24.2495 31.5105 23.9566C31.8034 23.6637 31.8034 23.1888 31.5105 22.8959L30.4498 23.9566ZM25.1582 22.826C24.8653 23.1189 24.8653 23.5938 25.1582 23.8867C25.4511 24.1796 25.926 24.1796 26.2189 23.8867L25.1582 22.826ZM31.4406 18.665C31.7335 18.3721 31.7335 17.8972 31.4406 17.6043C31.1477 17.3114 30.6728 17.3114 30.3799 17.6043L31.4406 18.665ZM24.677 11.5962H31.8506V10.0962H24.677V11.5962ZM37.0083 16.7539V24.7187H38.5083V16.7539H37.0083ZM31.8506 29.8764H24.677V31.3764H31.8506V29.8764ZM19.5193 24.7187V16.7539H18.0193V24.7187H19.5193ZM24.677 29.8764C23.2633 29.8764 22.2785 29.8748 21.5357 29.775C20.8145 29.678 20.4348 29.5009 20.1648 29.2309L19.1041 30.2916C19.6993 30.8867 20.4483 31.1423 21.3359 31.2616C22.2018 31.378 23.3057 31.3764 24.677 31.3764V29.8764ZM18.0193 24.7187C18.0193 26.09 18.0177 27.1939 18.1341 28.0598C18.2534 28.9474 18.509 29.6964 19.1041 30.2916L20.1648 29.2309C19.8948 28.9609 19.7177 28.5812 19.6207 27.86C19.5209 27.1172 19.5193 26.1324 19.5193 24.7187H18.0193ZM37.0083 24.7187C37.0083 26.1324 37.0067 27.1172 36.9068 27.86C36.8099 28.5812 36.6328 28.9609 36.3628 29.2309L37.4235 30.2916C38.0186 29.6964 38.2741 28.9474 38.3935 28.0598C38.5099 27.1939 38.5083 26.09 38.5083 24.7187H37.0083ZM31.8506 31.3764C33.2219 31.3764 34.3257 31.378 35.1917 31.2616C36.0793 31.1423 36.8283 30.8867 37.4235 30.2916L36.3628 29.2309C36.0928 29.5009 35.713 29.678 34.9918 29.775C34.2491 29.8748 33.2643 29.8764 31.8506 29.8764V31.3764ZM31.8506 11.5962C33.2643 11.5962 34.2491 11.5978 34.9918 11.6976C35.713 11.7946 36.0928 11.9717 36.3628 12.2417L37.4235 11.181C36.8283 10.5859 36.0793 10.3304 35.1917 10.211C34.3257 10.0946 33.2219 10.0962 31.8506 10.0962V11.5962ZM38.5083 16.7539C38.5083 15.3826 38.5099 14.2787 38.3935 13.4128C38.2741 12.5252 38.0186 11.7762 37.4235 11.181L36.3628 12.2417C36.6328 12.5117 36.8099 12.8914 36.9068 13.6126C37.0067 14.3554 37.0083 15.3402 37.0083 16.7539H38.5083ZM24.677 10.0962C23.3057 10.0962 22.2018 10.0946 21.3359 10.211C20.4483 10.3304 19.6993 10.5859 19.1041 11.181L20.1648 12.2417C20.4348 11.9717 20.8145 11.7946 21.5357 11.6976C22.2785 11.5978 23.2633 11.5962 24.677 11.5962V10.0962ZM19.5193 16.7539C19.5193 15.3402 19.5209 14.3554 19.6207 13.6126C19.7177 12.8914 19.8948 12.5117 20.1648 12.2417L19.1041 11.181C18.509 11.7762 18.2534 12.5252 18.1341 13.4128C18.0177 14.2787 18.0193 15.3826 18.0193 16.7539H19.5193ZM25.2281 18.7349L27.769 21.2758L28.8297 20.2152L26.2888 17.6742L25.2281 18.7349ZM27.769 21.2758L30.4498 23.9566L31.5105 22.8959L28.8297 20.2152L27.769 21.2758ZM26.2189 23.8867L28.8297 21.2758L27.769 20.2152L25.1582 22.826L26.2189 23.8867ZM28.8297 21.2758L31.4406 18.665L30.3799 17.6043L27.769 20.2152L28.8297 21.2758Z" fill="#0D0000"/>
</g>
<defs>
<filter id="filter0_d_20_475" x="-2" y="-1" width="60" height="60" filterUnits="userSpaceOnUse" color-interpolation-filters="sRGB">
<feFlood flood-opacity="0" result="BackgroundImageFix"/>
<feColorMatrix in="SourceAlpha" type="matrix" values="0 0 0 0 0 0 0 0 0 0 0 0 0 0 0 0 0 0 127 0" result="hardAlpha"/>
<feOffset dy="8"/>
<feGaussianBlur stdDeviation="9"/>
<feComposite in2="hardAlpha" operator="out"/>
<feColorMatrix type="matrix" values="0 0 0 0 0.152941 0 0 0 0 0.152941 0 0 0 0 0.152941 0 0 0 0.08 0"/>
<feBlend mode="normal" in2="BackgroundImageFix" result="effect1_dropShadow_20_475"/>
<feBlend mode="normal" in="SourceGraphic" in2="effect1_dropShadow_20_475" result="shape"/>
</filter>
</defs>
</svg>
