<svg width="24" height="24" viewBox="0 0 24 24" fill="none" xmlns="http://www.w3.org/2000/svg">
<g id="Cross withot box">
<path id="Vector" d="M6.9948 7.00627C6.60427 7.3968 6.60427 8.02996 6.9948 8.42049L10.5799 12.0056L6.9948 15.5908C6.60427 15.9813 6.60427 16.6145 6.9948 17.005C7.38532 17.3955 8.01849 17.3955 8.40901 17.005L11.9941 13.4198L15.5793 17.005C15.9698 17.3955 16.603 17.3955 16.9935 17.005C17.384 16.6145 17.384 15.9813 16.9935 15.5908L13.4083 12.0056L16.9935 8.4205C17.384 8.02998 17.384 7.39681 16.9935 7.00629C16.6029 6.61576 15.9698 6.61576 15.5793 7.00629L11.9941 10.5914L8.40901 7.00627C8.01849 6.61575 7.38532 6.61575 6.9948 7.00627Z" fill="#0D0000"/>
</g>
</svg>
