<svg width="24" height="24" viewBox="0 0 24 24" fill="none" xmlns="http://www.w3.org/2000/svg">
<g id="Dining Room" clip-path="url(#clip0_21_241)">
<path id="Vector" d="M23.9817 4.25972C23.9496 4.17947 23.6514 3.47025 23.0978 3.28863C22.8505 3.20747 22.5903 3.24517 22.3476 3.39586C22.2599 3.44891 20.2187 4.76627 19.946 11.9156H18.9104C19.2149 9.95667 19.0083 8.59462 18.874 7.9998H19.317C19.4376 7.9998 19.5415 7.91509 19.5657 7.79701L19.7849 6.73217C19.8003 6.65744 19.7813 6.57967 19.733 6.52046C19.6848 6.46132 19.6125 6.42694 19.5362 6.42694H4.46439C4.38803 6.42694 4.31578 6.46126 4.26753 6.52046C4.21927 6.57961 4.20025 6.65739 4.2156 6.73217L4.43476 7.79701C4.45908 7.91509 4.56299 7.9998 4.68354 7.9998H5.12654C4.99227 8.59434 4.78615 9.95656 5.09059 11.9156H4.05413C3.78153 4.76559 1.74 3.44897 1.65477 3.3975C1.40954 3.24522 1.1493 3.20758 0.902041 3.28868C0.348426 3.4703 0.0503685 4.17952 0.0181979 4.25978C-0.00099149 4.3077 -0.00511158 4.36036 0.00634565 4.4107L0.325116 5.80888C0.342443 5.88496 0.393803 5.94885 0.464409 5.98214C0.535071 6.01544 0.617021 6.01443 0.686724 5.97938L1.16127 5.74098C2.36721 8.3815 2.38431 11.1895 2.36354 11.9518C2.00944 12.0576 1.75044 12.3859 1.75044 12.7739C1.75044 13.0391 1.87145 13.2765 2.06103 13.4341C1.82957 13.8561 1.49629 14.8794 2.20004 16.6752C2.89492 18.4482 2.62113 18.9426 2.40113 19.3399C2.13547 19.8194 2.13547 20.0877 2.13547 20.4986C2.13547 20.6389 2.2492 20.7526 2.38945 20.7526H3.28751C3.37358 20.7526 3.45378 20.709 3.50063 20.6368C3.52507 20.5991 4.09652 19.6967 3.86314 18.2256C3.80535 17.8612 3.74326 17.5022 3.68327 17.155C3.52168 16.22 3.36901 15.3369 3.39655 14.8547C3.41315 14.5634 3.48799 14.3654 3.60719 14.297C3.72768 14.228 3.94148 14.2655 4.20957 14.4025C4.61424 14.6094 5.14725 14.8442 5.76826 14.8959C6.24274 17.0984 6.00333 17.8142 5.61971 18.5226C5.17953 19.3355 5.17954 19.7701 5.17954 20.4903V20.4986C5.17954 20.6388 5.29326 20.7525 5.43351 20.7525H6.6622C6.74917 20.7525 6.83011 20.708 6.87667 20.6346C6.91782 20.5698 7.87887 19.0175 7.48204 16.4598C7.41279 16.0135 7.31583 15.3882 7.23134 14.6717C7.40715 14.6029 7.59814 14.5156 7.81865 14.4029C8.08668 14.2658 8.30064 14.2284 8.42103 14.2974C8.54023 14.3657 8.61506 14.5638 8.63166 14.855C8.6592 15.3372 8.50653 16.2203 8.345 17.1553C8.28501 17.5025 8.22292 17.8615 8.16513 18.2259C7.93164 19.697 8.50326 20.5994 8.5277 20.6371C8.57448 20.7093 8.65469 20.7529 8.74076 20.7529H9.63882C9.77907 20.7529 9.8928 20.6347 9.8928 20.4944C9.8928 20.0882 9.8928 19.8199 9.62714 19.3401C9.35702 18.8523 9.18567 18.3151 9.82829 16.6755C10.532 14.8797 10.1988 13.8559 9.96735 13.4339C10.1569 13.2763 10.2779 13.039 10.2779 12.7738C10.2779 12.3005 9.8928 11.9155 9.4195 11.9155H7.05039C7.05022 10.903 7.14278 9.90718 7.40624 9.0971C7.74307 8.97011 8.36137 8.8587 9.2223 9.20033C10.4628 9.69265 11.9381 9.69829 12.0002 9.69829C12.0624 9.69829 13.5379 9.69265 14.7784 9.20033C15.6391 8.85875 16.2575 8.97011 16.5944 9.0971C16.8578 9.90712 16.9504 10.903 16.9503 11.9155H14.5802C14.107 11.9155 13.7219 12.3005 13.7219 12.7738C13.7219 13.0389 13.8429 13.2763 14.0324 13.4339C13.801 13.8559 13.4678 14.8794 14.1716 16.6751C14.8142 18.3149 14.6429 18.852 14.3727 19.3398C14.107 19.8195 14.107 20.0879 14.107 20.4986C14.107 20.6388 14.2207 20.7525 14.3609 20.7525H15.259C15.3451 20.7525 15.4253 20.709 15.4721 20.6367C15.4966 20.599 16.0681 19.6966 15.8347 18.2255C15.777 17.8615 15.7149 17.5027 15.6549 17.1559C15.4932 16.2205 15.3405 15.3369 15.368 14.8546C15.3847 14.5633 15.4595 14.3653 15.5787 14.297C15.6991 14.228 15.9131 14.2654 16.1811 14.4025C16.4017 14.5153 16.593 14.6028 16.7692 14.6716C16.6846 15.3881 16.5877 16.0134 16.5184 16.4598C16.1216 19.0174 17.0827 20.5697 17.1239 20.6346C17.1704 20.708 17.2514 20.7525 17.3384 20.7525H18.567C18.7073 20.7525 18.821 20.6388 18.821 20.4986V20.4905C18.821 19.7703 18.821 19.3355 18.3808 18.5225C17.9972 17.8141 17.7578 17.0982 18.2324 14.8955C18.8531 14.8437 19.3859 14.6092 19.7903 14.4025C20.0583 14.2654 20.2722 14.228 20.3927 14.297C20.5118 14.3653 20.5867 14.5634 20.6032 14.8546C20.6308 15.3368 20.4781 16.2199 20.3166 17.1549C20.2565 17.5021 20.1945 17.8611 20.1367 18.2255C19.9033 19.6966 20.4747 20.599 20.4992 20.6367C20.546 20.7089 20.6262 20.7525 20.7123 20.7525H21.6103C21.7506 20.7525 21.8643 20.6338 21.8643 20.4935C21.8643 20.0875 21.8643 19.8193 21.5987 19.3398C21.3787 18.9425 21.105 18.448 21.7998 16.6751C22.5036 14.8793 22.1703 13.8559 21.9389 13.4339C22.1284 13.2763 22.2494 13.0389 22.2494 12.7738C22.2494 12.3857 21.9904 12.0575 21.6363 11.9516C21.6156 11.1894 21.6327 8.38133 22.8387 5.74087L23.3132 5.97927C23.3829 6.01432 23.4648 6.01533 23.5355 5.98203C23.6061 5.94879 23.6574 5.88484 23.6748 5.80876L23.9936 4.41059C24.005 4.36036 24.0009 4.30764 23.9817 4.25972ZM4.77599 6.93496H19.2246L19.11 7.49185H4.89056L4.77599 6.93496ZM1.50848 5.28602C1.4788 5.2249 1.42586 5.17822 1.36151 5.15643C1.29712 5.13459 1.22674 5.13956 1.16601 5.17004L0.748356 5.37988L0.520397 4.38022C0.609063 4.19589 0.817438 3.85048 1.06109 3.77107C1.12656 3.74979 1.23153 3.73258 1.38629 3.82864C1.40548 3.841 3.28334 5.13171 3.54572 11.9156H2.87398C2.89853 11.0172 2.86077 8.06996 1.50848 5.28602ZM2.60883 12.4235H5.17869C5.22209 12.65 5.27294 12.884 5.33074 13.1242H2.60883C2.41564 13.1242 2.25845 12.967 2.25845 12.7739C2.25845 12.5807 2.41558 12.4235 2.60883 12.4235ZM4.44085 13.9503C4.00243 13.7262 3.63704 13.6946 3.35468 13.8565C3.07355 14.0176 2.9171 14.3438 2.88956 14.8258C2.85874 15.3661 3.00893 16.2353 3.18287 17.2417C3.24259 17.5871 3.30433 17.9444 3.36162 18.3053C3.51807 19.2915 3.25997 19.9831 3.13558 20.2447H2.64659C2.65579 20.019 2.69332 19.861 2.84565 19.586C3.16685 19.006 3.39531 18.3327 2.67311 16.4899C1.99431 14.7579 2.38301 13.8781 2.53517 13.6286C2.5595 13.6307 2.58399 13.6323 2.60888 13.6323H5.46055C5.53031 13.8937 5.59284 14.1396 5.64843 14.3709C5.10859 14.2911 4.65487 14.0597 4.44085 13.9503ZM9.35549 16.4902C8.63324 18.3332 8.86176 19.0064 9.18296 19.5864C9.33478 19.8606 9.37254 20.0185 9.38191 20.2451H8.89309C8.76835 19.9826 8.51054 19.2914 8.66699 18.3056C8.72428 17.9447 8.78596 17.5875 8.84573 17.2419C9.01962 16.2356 9.16986 15.3665 9.13899 14.8262C9.11151 14.3441 8.955 14.018 8.67387 13.8568C8.39151 13.6949 8.026 13.7265 7.58764 13.9507C7.43514 14.0286 7.29923 14.0928 7.17383 14.1464C7.15684 13.9782 7.14098 13.8065 7.12659 13.6322H9.41972C9.44439 13.6322 9.46866 13.6306 9.49281 13.6285C9.64672 13.8811 10.0332 14.7608 9.35549 16.4902ZM9.41967 12.4235C9.61292 12.4235 9.7701 12.5807 9.7701 12.7739C9.7701 12.9671 9.61292 13.1243 9.41967 13.1243H7.08973C7.07545 12.8928 7.0645 12.6585 7.05779 12.4236H9.41967V12.4235ZM6.54469 11.8538C6.54007 13.4883 6.77502 15.2155 6.98018 16.5378C7.2867 18.5133 6.71192 19.8538 6.51241 20.2447H5.68834C5.69342 19.7003 5.73456 19.3776 6.06648 18.7646C6.65582 17.6762 6.78563 16.5986 5.92916 13.4186C5.15312 10.5373 5.51016 8.57244 5.65007 7.9998H7.35229C6.82097 8.85514 6.54949 10.1477 6.54469 11.8538ZM14.5909 8.72838C13.4432 9.18385 12.0163 9.19051 12.0002 9.19051C11.9841 9.19051 10.5573 9.18385 9.40956 8.72838C8.67562 8.43709 8.07895 8.43004 7.64684 8.50787C7.74178 8.32128 7.85003 8.15078 7.97346 7.9998H16.0271C16.1505 8.15083 16.2588 8.32134 16.3538 8.50804C15.9217 8.43015 15.3251 8.43704 14.5909 8.72838ZM14.5802 12.4235H16.9428C16.9361 12.6584 16.9251 12.8927 16.9108 13.1242H14.5802C14.387 13.1242 14.2298 12.967 14.2298 12.7739C14.2298 12.5807 14.387 12.4235 14.5802 12.4235ZM16.4123 13.9503C15.9739 13.7262 15.6084 13.6947 15.3261 13.8565C15.045 14.0176 14.8885 14.3438 14.8609 14.8258C14.8301 15.3663 14.9804 16.2358 15.1544 17.2426C15.2141 17.5877 15.2758 17.9447 15.333 18.3052C15.4895 19.2916 15.2312 19.9831 15.1069 20.2447H14.6179C14.6272 20.019 14.6647 19.861 14.817 19.586C15.1381 19.0061 15.3666 18.3329 14.6444 16.4898C13.9671 14.7615 14.3527 13.8817 14.5068 13.6285C14.5311 13.6305 14.5554 13.6322 14.5801 13.6322H16.874C16.8596 13.8065 16.8438 13.9783 16.8267 14.1466C16.7012 14.093 16.5649 14.0283 16.4123 13.9503ZM17.9341 18.7646C18.2661 19.3776 18.3071 19.7004 18.3123 20.2447H17.4883C17.2883 19.8531 16.7139 18.5128 17.0204 16.5379C17.2255 15.2156 17.4604 13.4883 17.4559 11.8539C17.4511 10.1469 17.1786 8.85525 16.6467 7.99986H18.351C18.4915 8.56809 18.851 10.5239 18.0714 13.4186C17.215 16.5986 17.3447 17.6762 17.9341 18.7646ZM21.3269 16.4898C20.6047 18.3325 20.8331 19.0058 21.1543 19.586C21.3061 19.8601 21.3438 20.018 21.3532 20.2447H20.8644C20.7397 19.9822 20.482 19.2909 20.6383 18.3052C20.6956 17.9443 20.7573 17.5871 20.817 17.2415C20.991 16.2352 21.1411 15.3661 21.1103 14.8258C21.0828 14.3437 20.9263 14.0176 20.6453 13.8564C20.363 13.6945 19.9974 13.7261 19.559 13.9503C19.3452 14.0596 18.8918 14.2903 18.3523 14.3702C18.4079 14.139 18.4704 13.8934 18.5401 13.6321H21.3911C21.4158 13.6321 21.4401 13.6305 21.4644 13.6284C21.6184 13.8815 22.0043 14.7612 21.3269 16.4898ZM21.3911 13.1242H18.6699C18.7276 12.884 18.7786 12.6499 18.822 12.4235H21.3911C21.5843 12.4235 21.7415 12.5807 21.7415 12.7739C21.7415 12.9671 21.5843 13.1242 21.3911 13.1242ZM23.2516 5.37994L22.834 5.17009C22.7733 5.13962 22.7029 5.13465 22.6385 5.15649C22.5741 5.17828 22.5212 5.22495 22.4915 5.28608C21.1393 8.06967 21.1015 11.0168 21.126 11.9156H20.4545C20.7168 5.13205 22.5944 3.841 22.613 3.82898C22.7683 3.73247 22.8733 3.74974 22.9387 3.77107C23.1825 3.85048 23.391 4.19629 23.4795 4.38017L23.2516 5.37994Z" fill="#0D0000" stroke="black" stroke-width="0.2"/>
</g>
<defs>
<clipPath id="clip0_21_241">
<rect width="24" height="24" fill="white"/>
</clipPath>
</defs>
</svg>
