<svg width="24" height="24" viewBox="0 0 24 24" fill="none" xmlns="http://www.w3.org/2000/svg">
<g id="Document">
<g id="Iconly/Light-Outline/Document">
<g id="Document_2">
<path id="Combined-Shape" fill-rule="evenodd" clip-rule="evenodd" d="M15.9088 2C19.0528 2 21.1648 4.153 21.1648 7.357V16.553C21.1648 19.785 19.1178 21.887 15.9498 21.907L8.25676 21.91C5.11276 21.91 2.99976 19.757 2.99976 16.553V7.357C2.99976 4.124 5.04676 2.023 8.21476 2.004L15.9078 2H15.9088ZM15.9088 3.5L8.21976 3.504C5.89176 3.518 4.49976 4.958 4.49976 7.357V16.553C4.49976 18.968 5.90476 20.41 8.25576 20.41L15.9448 20.407C18.2728 20.393 19.6648 18.951 19.6648 16.553V7.357C19.6648 4.942 18.2608 3.5 15.9088 3.5ZM15.7159 15.4737C16.1299 15.4737 16.4659 15.8097 16.4659 16.2237C16.4659 16.6377 16.1299 16.9737 15.7159 16.9737H8.49586C8.08186 16.9737 7.74586 16.6377 7.74586 16.2237C7.74586 15.8097 8.08186 15.4737 8.49586 15.4737H15.7159ZM15.7159 11.2872C16.1299 11.2872 16.4659 11.6232 16.4659 12.0372C16.4659 12.4512 16.1299 12.7872 15.7159 12.7872H8.49586C8.08186 12.7872 7.74586 12.4512 7.74586 12.0372C7.74586 11.6232 8.08186 11.2872 8.49586 11.2872H15.7159ZM11.2506 7.1104C11.6646 7.1104 12.0006 7.4464 12.0006 7.8604C12.0006 8.2744 11.6646 8.6104 11.2506 8.6104H8.49556C8.08156 8.6104 7.74556 8.2744 7.74556 7.8604C7.74556 7.4464 8.08156 7.1104 8.49556 7.1104H11.2506Z" fill="#0D0000"/>
</g>
</g>
</g>
</svg>
