<svg width="37" height="37" viewBox="0 0 37 37" fill="none" xmlns="http://www.w3.org/2000/svg">
<g id="Edit Square" filter="url(#filter0_d_20_480)">
<g id="Iconly/Light-Outline/Edit-Square">
<g id="Edit-Square">
<path id="Combined-Shape" fill-rule="evenodd" clip-rule="evenodd" d="M17.492 4.0364C17.906 4.0364 18.242 4.3724 18.242 4.7864C18.242 5.2004 17.906 5.5364 17.492 5.5364H13.753C11.169 5.5364 9.5 7.3064 9.5 10.0454V18.3594C9.5 21.0984 11.169 22.8684 13.753 22.8684H22.577C25.161 22.8684 26.831 21.0984 26.831 18.3594V14.3314C26.831 13.9174 27.167 13.5814 27.581 13.5814C27.995 13.5814 28.331 13.9174 28.331 14.3314V18.3594C28.331 21.9534 26.018 24.3684 22.577 24.3684H13.753C10.312 24.3684 8 21.9534 8 18.3594V10.0454C8 6.4514 10.312 4.0364 13.753 4.0364H17.492ZM26.2016 4.915L27.4186 6.132C28.0116 6.724 28.3376 7.511 28.3366 8.349C28.3366 9.187 28.0106 9.973 27.4186 10.564L19.9096 18.073C19.3586 18.624 18.6246 18.928 17.8446 18.928H14.0986C13.8966 18.928 13.7026 18.846 13.5616 18.701C13.4206 18.557 13.3436 18.362 13.3486 18.159L13.4426 14.38C13.4616 13.628 13.7646 12.921 14.2966 12.388H14.2976L21.7706 4.915C22.9926 3.695 24.9796 3.695 26.2016 4.915ZM21.155 7.651L15.3576 13.449C15.0986 13.708 14.9516 14.052 14.9426 14.417L14.8676 17.428H17.8446C18.2246 17.428 18.5806 17.281 18.8496 17.012L24.682 11.178L21.155 7.651ZM22.8306 5.976L22.215 6.59L25.742 10.118L26.3586 9.503C26.6666 9.195 26.8366 8.785 26.8366 8.349C26.8366 7.912 26.6666 7.501 26.3586 7.193L25.1416 5.976C24.5046 5.341 23.4686 5.341 22.8306 5.976Z" fill="#0D0000"/>
</g>
</g>
</g>
<defs>
<filter id="filter0_d_20_480" x="-2" y="-2" width="40" height="40" filterUnits="userSpaceOnUse" color-interpolation-filters="sRGB">
<feFlood flood-opacity="0" result="BackgroundImageFix"/>
<feColorMatrix in="SourceAlpha" type="matrix" values="0 0 0 0 0 0 0 0 0 0 0 0 0 0 0 0 0 0 127 0" result="hardAlpha"/>
<feOffset dy="4"/>
<feGaussianBlur stdDeviation="4"/>
<feComposite in2="hardAlpha" operator="out"/>
<feColorMatrix type="matrix" values="0 0 0 0 0.152941 0 0 0 0 0.152941 0 0 0 0 0.152941 0 0 0 0.04 0"/>
<feBlend mode="normal" in2="BackgroundImageFix" result="effect1_dropShadow_20_480"/>
<feBlend mode="normal" in="SourceGraphic" in2="effect1_dropShadow_20_480" result="shape"/>
</filter>
</defs>
</svg>
