<svg width="48" height="48" viewBox="0 0 48 48" fill="none" xmlns="http://www.w3.org/2000/svg">
<g id="facebook">
<g id="facebook_icon-icons.com_53612 1" clip-path="url(#clip0_94_949)">
<g id="Layer_x0020_1">
<g id="_444233528">
<path id="Vector" d="M40.7022 2.66699H7.29651C4.73916 2.66699 2.66602 4.74013 2.66602 7.29748V40.7032C2.66602 43.2605 4.73916 45.3337 7.29651 45.3337H40.7022C43.2595 45.3337 45.3327 43.2605 45.3327 40.7032V7.29748C45.3327 4.74013 43.2595 2.66699 40.7022 2.66699Z" fill="#3B5999"/>
<path id="Vector_2" fill-rule="evenodd" clip-rule="evenodd" d="M16.5576 20.1969H21.0227V19.3701C21.0227 18.0471 20.8574 16.3933 21.0227 15.0703C21.1881 11.9282 22.8419 9.94369 27.1416 9.77832L31.4413 9.94369V14.5742C29.6222 14.5742 26.4801 13.9127 26.1493 16.2279V20.1969H31.1106L30.6145 25.3235H26.1493V38.2228H21.0227V25.3235L16.5576 25.1582V20.1969Z" fill="white"/>
<path id="Vector_3" fill-rule="evenodd" clip-rule="evenodd" d="M45.3325 23.8348L31.4411 9.94336V14.5739C29.6219 14.5739 26.4798 13.9124 26.1491 16.2276V20.1966H31.1103L30.6142 25.3232H26.1491V38.2224H21.0225L28.1336 45.3335H40.702L45.3325 40.703V23.8348Z" fill="#30487C"/>
</g>
</g>
</g>
</g>
<defs>
<clipPath id="clip0_94_949">
<rect width="42.6667" height="42.6667" fill="white" transform="translate(2.66602 2.66699)"/>
</clipPath>
</defs>
</svg>
