<svg width="24" height="24" viewBox="0 0 24 24" fill="none" xmlns="http://www.w3.org/2000/svg">
<g id="Fire">
<path id="Vector" d="M11.916 23.9827C6.26173 23.9827 2.25073 20.0617 2.25073 14.6594C2.25073 11.7914 3.97048 8.70142 4.04323 8.57242C4.19248 8.30692 4.48573 8.16217 4.79173 8.19592C5.09473 8.23492 5.34373 8.45317 5.42173 8.74792C5.42623 8.76592 5.88973 10.4999 6.50173 11.4629C6.91273 12.1109 7.32973 12.5692 7.79848 12.8872C7.48123 11.5124 7.23823 9.44392 7.63348 7.32142C8.71948 1.49542 13.305 0.101166 13.5015 0.0456658C13.7542 -0.0270842 14.0227 0.0381658 14.2147 0.212916C14.4067 0.389166 14.4945 0.652416 14.445 0.908166C14.4375 0.948666 13.68 5.02792 15.2872 8.50342C15.4335 8.81917 15.6367 9.18592 15.8557 9.55267C15.918 9.04867 16.0147 8.51317 16.1632 7.99267C16.7527 5.93092 18.2775 5.22667 18.3412 5.19817C18.5955 5.08267 18.8925 5.12017 19.1115 5.29267C19.3305 5.46592 19.4362 5.74492 19.3852 6.01942C19.377 6.07042 19.1647 7.47292 20.3587 9.46342C21.4372 11.2604 21.7477 12.4252 21.7477 14.6594C21.7477 20.0617 17.6122 23.9819 11.9145 23.9819L11.916 23.9827ZM4.58623 10.9612C4.17448 11.9999 3.74998 13.3807 3.74998 14.6594C3.74998 19.1924 7.12948 22.4819 11.9152 22.4819C16.7437 22.4819 20.2477 19.1924 20.2477 14.6587C20.2477 12.7004 20.0055 11.7922 19.0725 10.2344C18.4485 9.19492 18.1402 8.25967 17.9932 7.51567C17.8447 7.75642 17.7067 8.04967 17.6062 8.40367C17.1487 10.0019 17.2642 11.8709 17.2657 11.8904C17.2875 12.2249 17.0842 12.5347 16.7677 12.6464C16.4512 12.7582 16.0987 12.6479 15.9045 12.3734C15.8482 12.2932 14.514 10.4054 13.9267 9.13342C12.7057 6.49492 12.726 3.64117 12.8512 1.99792C11.6152 2.71792 9.71848 4.32592 9.10948 7.59742C8.51623 10.7804 9.66898 13.9634 9.68098 13.9942C9.78073 14.2537 9.72823 14.5484 9.54523 14.7577C9.36148 14.9654 9.07873 15.0577 8.80573 14.9924C8.71273 14.9699 6.60223 14.4209 5.23498 12.2669C4.99123 11.8814 4.77223 11.4142 4.58698 10.9604L4.58623 10.9612Z" fill="#0D0000"/>
</g>
</svg>
