<svg width="24" height="24" viewBox="0 0 24 24" fill="none" xmlns="http://www.w3.org/2000/svg">
<g id="Globe">
<path id="Vector" d="M12 2.00391C11.997 2.00391 11.9948 2.00391 11.9918 2.00391C11.9903 2.00391 11.9895 2.00391 11.988 2.00391C11.9843 2.00391 11.9805 2.00466 11.976 2.00466C6.46578 2.01741 2.00403 6.48741 2.00403 11.9999C2.00403 17.5109 6.46578 21.9817 11.976 21.9952C11.9798 21.9952 11.9835 21.9959 11.988 21.9959C11.9895 21.9959 11.991 21.9959 11.9918 21.9959C11.9948 21.9959 11.9978 21.9959 12 21.9959C17.52 21.9959 21.996 17.5199 21.996 11.9999C21.996 6.47991 17.52 2.00391 12 2.00391ZM12.3998 7.98591C13.4595 7.95666 14.4908 7.81716 15.4838 7.57491C15.783 8.75316 15.969 10.1114 15.9983 11.6002H12.3998V7.98591ZM12.3998 7.18641V2.86716C13.4775 3.16566 14.5695 4.60266 15.2655 6.80616C14.3423 7.02891 13.3838 7.15866 12.3998 7.18641ZM11.6003 2.85741V7.18641C10.608 7.15866 9.64203 7.02666 8.71128 6.80016C9.41328 4.58316 10.515 3.14091 11.6003 2.85816V2.85741ZM11.6003 7.98516V11.6002H7.97703C8.00628 10.1092 8.19228 8.74941 8.49228 7.57041C9.49278 7.81491 10.5323 7.95666 11.6003 7.98516ZM7.17228 11.6002H2.81403C2.90253 9.54441 3.66828 7.66116 4.89378 6.16941C5.78403 6.65991 6.72828 7.06116 7.71828 7.36116C7.39503 8.63616 7.20153 10.0739 7.17228 11.6002ZM7.17228 12.3997C7.20153 13.9252 7.39503 15.3629 7.71828 16.6379C6.72903 16.9387 5.78403 17.3399 4.89378 17.8304C3.66753 16.3387 2.90178 14.4554 2.81403 12.3997H7.17228ZM7.97703 12.3997H11.6003V16.0102C10.5323 16.0387 9.49278 16.1812 8.49153 16.4264C8.19228 15.2482 8.00628 13.8892 7.97703 12.3997ZM11.6003 16.8089V21.1424C10.5143 20.8589 9.41103 19.4152 8.70978 17.1952C9.64053 16.9687 10.6073 16.8367 11.6003 16.8089ZM12.3998 21.1334V16.8097C13.3845 16.8382 14.343 16.9679 15.2663 17.1907C14.5703 19.3964 13.4783 20.8357 12.3998 21.1334ZM12.3998 16.0102V12.3997H15.9983C15.969 13.8869 15.7838 15.2429 15.4853 16.4204C14.4915 16.1782 13.4603 16.0379 12.4005 16.0094L12.3998 16.0102ZM16.803 12.3997H21.1868C21.0983 14.4554 20.3333 16.3379 19.107 17.8297C18.2093 17.3362 17.2568 16.9319 16.2593 16.6304C16.5818 15.3569 16.7745 13.9222 16.8038 12.4004L16.803 12.3997ZM16.803 11.6002C16.7738 10.0754 16.5803 8.64066 16.2578 7.36566C17.2553 7.06416 18.207 6.66066 19.104 6.16716C20.331 7.65891 21.0975 9.54291 21.186 11.6002H16.803ZM18.5535 5.55666C17.7578 5.97966 16.9185 6.32991 16.041 6.59541C15.5738 5.09166 14.9175 3.86391 14.1413 3.05766C15.8438 3.46641 17.364 4.34691 18.5535 5.55666ZM9.82728 3.06516C9.05553 3.86991 8.40228 5.09166 7.93653 6.58791C7.06803 6.32316 6.23553 5.97666 5.44728 5.55666C6.62853 4.35516 8.13753 3.47616 9.82728 3.06516ZM5.44428 18.4402C6.23328 18.0194 7.06653 17.6722 7.93578 17.4074C8.40153 18.9052 9.05478 20.1292 9.82728 20.9339C8.13603 20.5222 6.62628 19.6439 5.44428 18.4402ZM14.1413 20.9414C14.9183 20.1352 15.5745 18.9074 16.0425 17.4007C16.92 17.6669 17.76 18.0157 18.5558 18.4409C17.3663 19.6514 15.8453 20.5342 14.1413 20.9414Z" fill="#0D0000"/>
</g>
</svg>
