<svg width="24" height="24" viewBox="0 0 24 24" fill="none" xmlns="http://www.w3.org/2000/svg">
<g id="Home">
<g id="Iconly/Light-Outline/Home">
<g id="Home_2">
<path id="Fill-1" d="M16.3594 21.5051L16.3594 21.5053H16.3708H18.2768C20.0489 21.5053 21.4998 20.0814 21.4998 18.3173V9.59325H21.4998L21.4997 9.58639C21.4906 8.92134 21.1742 8.30041 20.6408 7.89041L14.0515 2.63534L14.0502 2.63431C12.983 1.78894 11.4879 1.78955 10.4184 2.63623L10.4184 2.63622L10.4158 2.63827L3.87269 7.88838C3.32426 8.30763 3.0063 8.92889 2.99978 9.60543H2.99976V9.61025V18.3173C2.99976 20.0814 4.45065 21.5053 6.22276 21.5053H8.14676C8.68242 21.5053 9.13776 21.0777 9.13776 20.5263C9.13776 20.5078 9.14008 20.4856 9.14526 20.4618L9.15676 20.4092V20.3553V17.4603C9.15676 16.5501 9.90462 15.7983 10.8275 15.7913H13.7168C14.6479 15.7913 15.4008 16.5437 15.4008 17.4603V20.5363C15.4008 21.0762 15.8351 21.4932 16.3594 21.5051ZM10.8308 16.2912L10.828 16.2913C10.1909 16.2947 9.65676 16.8123 9.65676 17.4603V20.5263C9.65676 20.5567 9.65274 20.5784 9.64802 20.5937L9.6339 20.6394L9.62871 20.687C9.54829 21.4242 8.91582 22.0053 8.14676 22.0053H6.22276C4.16602 22.0053 2.49976 20.3463 2.49976 18.3173V9.60587C2.50891 8.76742 2.8938 8.00381 3.56061 7.49886L3.56073 7.49901L3.57172 7.49019L10.1042 2.24717C10.1046 2.24686 10.105 2.24655 10.1054 2.24624C11.3625 1.25125 13.1092 1.25178 14.3626 2.24467C14.3628 2.24482 14.363 2.24497 14.3632 2.24512L20.944 7.49414L20.9439 7.49423L20.9527 7.50096C21.6021 7.9958 21.9878 8.75802 21.9998 9.5857V18.3173C21.9998 20.3463 20.3335 22.0053 18.2768 22.0053H16.359C15.5255 21.9828 14.9008 21.3353 14.9008 20.5363V17.4603C14.9008 16.8046 14.3593 16.2913 13.7168 16.2913L10.8308 16.2912Z" fill="#0D0000" stroke="black"/>
</g>
</g>
</g>
</svg>
