<svg width="240" height="243" viewBox="0 0 240 243" fill="none" xmlns="http://www.w3.org/2000/svg">
<g id="Icon">
<path id="path0" fill-rule="evenodd" clip-rule="evenodd" d="M112.161 0.244874C56.3043 3.99687 8.56627 48.7709 0.760268 104.73C-0.600732 114.492 -0.0357363 137.788 1.67126 142.235C2.03926 143.195 1.58227 143.301 13.3333 139.516L18.4113 137.88L18.3883 135.758C18.3753 134.591 18.1503 131 17.8893 127.777C16.2403 107.487 21.6923 84.4979 32.0503 68.0669C33.2503 66.1639 34.2323 64.5309 34.2323 64.4379C34.2323 64.3459 35.4513 62.6509 36.9413 60.6719C81.5373 1.44088 167.162 4.74787 206.305 67.2139C223.715 94.9959 226.26 129.997 213.153 161.368C201.315 189.702 177.512 211.579 149.551 219.824C128.536 226.021 111.277 225.862 85.4043 219.234C73.0673 216.074 58.2183 215.677 51.7073 218.334L50.4473 218.848L51.6173 219.952C67.2483 234.704 106.413 245.273 132.279 241.719C144.425 240.051 157.018 236.778 164.896 233.245C185.968 223.791 203.852 209.56 215.456 193.011C219.142 187.754 221.732 183.843 221.732 183.533C221.732 183.352 222.235 182.51 222.85 181.662C224.006 180.07 227.809 172.765 229.924 168.075C241.304 142.847 242.342 104.486 232.305 80.1209C232.128 79.6909 231.223 77.4939 230.294 75.2379C228.166 70.0729 225.356 64.3269 223.312 60.9619C222.443 59.5309 221.732 58.2699 221.732 58.1589C221.732 57.5349 213.194 45.8799 210.063 42.2299C185.617 13.7289 148.485 -2.19513 112.161 0.244874ZM110.924 31.9149C111.062 32.6469 111.441 34.2069 111.766 35.3819C114.455 45.1019 109.595 59.8349 100.543 69.3999C90.7293 79.7709 87.5103 80.7399 86.0063 73.7729C84.9783 69.0059 75.1033 79.3379 71.2373 89.2259C63.5943 108.772 69.5253 130.404 86.1433 143.597C91.0613 147.502 100.446 151.854 102.072 150.984C103.506 150.216 103.189 149.649 99.9333 147.171C87.4873 137.697 81.0803 120.521 84.8363 106.704C86.4653 100.714 89.2853 97.5659 89.3043 101.715C89.3243 105.96 93.7893 110.088 100.14 111.733C104.06 112.749 103.896 112.893 103.593 108.734C103.148 102.609 105.078 93.6119 107.851 88.8799C108.61 87.5839 109.232 86.4249 109.232 86.3039C109.232 85.2719 117.245 76.5689 119.693 74.9429C120.966 74.0969 121.166 74.5609 120.636 77.1279C118.436 87.7799 121.326 95.7949 131.723 107.87C138.471 115.707 139.436 116.931 140.471 118.963C142.756 123.452 145.131 122.114 147.52 114.992C149.402 109.385 150.726 112.202 150.776 121.918C150.833 133.01 147.055 140.94 138.641 147.384C137.075 148.584 135.794 149.783 135.794 150.049C135.794 154.197 151.751 145.843 158.034 138.406C158.798 137.501 159.743 136.41 160.135 135.98C160.526 135.55 161.221 134.584 161.678 133.832C162.136 133.08 162.614 132.377 162.74 132.269C163.25 131.833 165.515 127.958 167.191 124.652C177.509 104.3 173.73 76.9899 158.255 60.0739C155.08 56.6029 154.722 56.8189 154.876 62.1129C155.188 72.7999 149.624 82.9129 139.89 89.3459C132.606 94.1609 131.948 93.1959 134.882 81.9979C138.59 67.8409 137.352 58.4559 130.238 46.7939C125.209 38.5489 109.957 26.7999 110.924 31.9149ZM182.021 142.963C178.298 144.18 176.512 146.045 172.363 153.053C158.97 175.677 147.696 185.036 128.391 189.561C115.023 192.695 94.5803 190.031 93.4093 185.004C92.9843 183.178 93.8293 182.7 97.9043 182.461C110.89 181.699 123.088 179.018 131.846 175C138.824 171.798 140.559 165.894 136.003 160.851C132.917 157.435 129.71 157.296 120.365 160.175C101.334 166.036 89.6703 165.228 72.7083 156.874C51.7733 146.563 42.0273 146.345 16.8503 155.628C4.47227 160.192 5.31327 159.281 7.89527 165.328C14.1113 179.881 23.2213 194.014 32.7213 203.841L36.7713 208.03L41.0433 206.881C48.0073 205.008 52.8643 204.357 59.6223 204.391C66.0803 204.423 67.2053 204.534 85.0133 206.893C119.732 211.494 135.562 210.283 152.786 201.709C159.715 198.26 168.272 191.125 173.523 184.418C174.364 183.343 175.159 182.377 175.291 182.269C175.805 181.848 180.826 175.013 181.028 174.459C181.146 174.136 182.09 172.607 183.124 171.062C185.504 167.509 191.404 156.588 192.475 153.754C194.996 147.085 188.842 140.733 182.021 142.963Z" fill="#E85646"/>
</g>
</svg>
