<svg width="24" height="24" viewBox="0 0 24 24" fill="none" xmlns="http://www.w3.org/2000/svg">
<g id="Image">
<g id="Iconly/Light-Outline/Image-2">
<g id="Image-2">
<path id="Combined-Shape" fill-rule="evenodd" clip-rule="evenodd" d="M16.3024 2C17.9104 2 19.2974 2.537 20.3124 3.554C21.3734 4.616 21.9554 6.161 21.9534 7.905L21.9548 14.9014C21.9566 14.9283 21.9569 14.9553 21.9558 14.9822L21.9534 16.05C21.9534 19.581 19.6804 21.954 16.2974 21.954H7.65137C4.27137 21.954 2.00037 19.581 2.00037 16.05V7.904C2.00037 4.373 4.27137 2 7.65137 2H16.3024ZM16.579 12.8323C15.991 12.8323 15.301 13.8053 14.69 14.6643C13.852 15.8443 12.985 17.0653 11.679 17.0653C10.796 17.0653 9.98697 16.7253 9.27397 16.4243C8.13997 15.9463 7.62597 15.7933 7.12297 16.2073C6.11606 17.037 5.12115 18.5479 4.66399 19.2914C5.38554 20.0354 6.41053 20.454 7.65137 20.454H16.2974C18.8224 20.454 20.4534 18.726 20.4534 16.05L20.4534 15.251L20.4303 15.2267C19.5549 14.3248 18.0432 12.8323 16.579 12.8323ZM16.3024 3.5H7.65137C5.13037 3.5 3.50037 5.229 3.50037 7.904V16.05C3.50037 16.7186 3.60212 17.328 3.79409 17.8661C4.37278 16.9923 5.24676 15.8094 6.16997 15.0493C7.42197 14.0193 8.76997 14.5853 9.85597 15.0423C10.495 15.3113 11.099 15.5653 11.679 15.5653C12.211 15.5653 12.878 14.6253 13.468 13.7963C14.287 12.6403 15.217 11.3323 16.579 11.3323C18.0737 11.3323 19.4275 12.2509 20.4544 13.1624L20.4534 7.904C20.4554 6.541 20.0394 5.403 19.2514 4.614C18.5234 3.885 17.5044 3.5 16.3024 3.5ZM8.85737 6.1895C10.2884 6.1905 11.4524 7.3545 11.4534 8.7845V8.7855C11.4534 10.2165 10.2894 11.3805 8.85737 11.3805C7.42537 11.3805 6.26137 10.2165 6.26137 8.7855C6.26137 7.3535 7.42537 6.1895 8.85737 6.1895ZM8.85637 7.6895C8.25237 7.6895 7.76137 8.1805 7.76137 8.7855C7.76137 9.3895 8.25237 9.8805 8.85737 9.8805C9.46137 9.8805 9.95337 9.3895 9.95337 8.7865C9.95237 8.1815 9.46037 7.6905 8.85637 7.6895Z" fill="#0D0000"/>
</g>
</g>
</g>
</svg>
