<svg width="48" height="48" viewBox="0 0 48 48" fill="none" xmlns="http://www.w3.org/2000/svg">
<g id="Inistagram">
<g id="iconfinder-social-media-applications-3instagram-4102579_113804 1" clip-path="url(#clip0_94_947)">
<g id="3-instagram">
<path id="Vector" d="M10.133 45.334L37.8663 45.334C41.9901 45.334 45.333 41.991 45.333 37.8673L45.333 10.134C45.333 6.01026 41.9901 2.66732 37.8663 2.66732L10.133 2.66732C6.00928 2.66732 2.66634 6.01026 2.66634 10.134L2.66634 37.8673C2.66634 41.991 6.00928 45.334 10.133 45.334Z" fill="url(#paint0_radial_94_947)"/>
<path id="Vector_2" d="M32 40H16C13.8783 40 11.8434 39.1571 10.3431 37.6569C8.84285 36.1566 8 34.1217 8 32V16C8 13.8783 8.84285 11.8434 10.3431 10.3431C11.8434 8.84285 13.8783 8 16 8H32C34.1217 8 36.1566 8.84285 37.6569 10.3431C39.1571 11.8434 40 13.8783 40 16V32C40 34.1217 39.1571 36.1566 37.6569 37.6569C36.1566 39.1571 34.1217 40 32 40ZM16 11.2C14.7275 11.2018 13.5076 11.708 12.6078 12.6078C11.708 13.5076 11.2018 14.7275 11.2 16V32C11.2018 33.2725 11.708 34.4924 12.6078 35.3922C13.5076 36.292 14.7275 36.7982 16 36.8H32C33.2725 36.7982 34.4924 36.292 35.3922 35.3922C36.292 34.4924 36.7982 33.2725 36.8 32V16C36.7982 14.7275 36.292 13.5076 35.3922 12.6078C34.4924 11.708 33.2725 11.2018 32 11.2H16Z" fill="white"/>
<path id="Vector_3" d="M23.9993 33.0669C22.2061 33.0669 20.4531 32.5352 18.9621 31.5389C17.4711 30.5427 16.309 29.1266 15.6228 27.4699C14.9365 25.8132 14.757 23.9902 15.1068 22.2314C15.4567 20.4727 16.3202 18.8572 17.5882 17.5892C18.8562 16.3212 20.4717 15.4577 22.2305 15.1078C23.9892 14.758 25.8122 14.9375 27.469 15.6238C29.1257 16.31 30.5417 17.4721 31.5379 18.9631C32.5342 20.4541 33.066 22.207 33.066 24.0003C33.0642 26.4044 32.1084 28.7095 30.4084 30.4094C28.7085 32.1094 26.4034 33.0652 23.9993 33.0669ZM23.9993 18.1336C22.839 18.1336 21.7047 18.4777 20.7399 19.1223C19.7752 19.7669 19.0232 20.6832 18.5792 21.7552C18.1352 22.8272 18.019 24.0068 18.2453 25.1448C18.4717 26.2828 19.0305 27.3282 19.8509 28.1486C20.6714 28.9691 21.7167 29.5278 22.8548 29.7542C23.9928 29.9806 25.1724 29.8644 26.2444 29.4204C27.3164 28.9763 28.2326 28.2244 28.8772 27.2596C29.5219 26.2948 29.866 25.1606 29.866 24.0003C29.8642 22.4449 29.2455 20.9537 28.1457 19.8539C27.0459 18.754 25.5547 18.1354 23.9993 18.1336Z" fill="white"/>
<path id="Vector_4" d="M33.0668 17.0672C33.9504 17.0672 34.6668 16.3508 34.6668 15.4672C34.6668 14.5835 33.9504 13.8672 33.0668 13.8672C32.1831 13.8672 31.4668 14.5835 31.4668 15.4672C31.4668 16.3508 32.1831 17.0672 33.0668 17.0672Z" fill="white"/>
</g>
</g>
</g>
<defs>
<radialGradient id="paint0_radial_94_947" cx="0" cy="0" r="1" gradientUnits="userSpaceOnUse" gradientTransform="translate(1.80801 44.4673) rotate(180) scale(98.53)">
<stop stop-color="#F9ED32"/>
<stop offset="0.36" stop-color="#EE2A7B"/>
<stop offset="0.44" stop-color="#D22A8A"/>
<stop offset="0.6" stop-color="#8B2AB2"/>
<stop offset="0.83" stop-color="#1B2AF0"/>
<stop offset="0.88" stop-color="#002AFF"/>
</radialGradient>
<clipPath id="clip0_94_947">
<rect width="42.6667" height="42.6667" fill="white" transform="translate(2.66602 2.66699)"/>
</clipPath>
</defs>
</svg>
