<svg width="48" height="48" viewBox="0 0 48 48" fill="none" xmlns="http://www.w3.org/2000/svg">
<g id="linkedin">
<g id="Layer_9">
<path id="Vector" d="M2.66602 5.51144V42.4892C2.66602 44.0537 3.94602 45.3337 5.51046 45.3337H42.4882C44.0527 45.3337 45.3327 44.0537 45.3327 42.4892V5.51144C45.3327 3.94699 44.0527 2.66699 42.4882 2.66699H5.51046C3.94602 2.66699 2.66602 3.94699 2.66602 5.51144ZM14.826 38.2225H9.77713V18.5959H14.826V38.2225ZM12.3371 14.6848C10.9149 14.6848 9.77713 13.6181 9.77713 12.267C9.77713 10.9159 10.9149 9.84921 12.3371 9.84921C13.7593 9.84921 14.8971 10.9159 14.8971 12.267C14.826 13.6181 13.6882 14.6848 12.3371 14.6848ZM38.2216 38.2225H33.1727V28.4092C33.1727 26.347 33.1016 24.9959 32.8882 24.3559C32.6749 23.7159 32.3193 23.2892 31.8927 22.9337C31.3949 22.5781 30.826 22.4359 30.186 22.4359C29.3327 22.4359 28.5505 22.6492 27.9105 23.147C27.1993 23.6448 26.7727 24.2848 26.4882 25.067C26.2038 25.8492 26.1327 27.3425 26.1327 29.4759V38.2225H20.0171V18.5959H25.066V21.5114C26.7727 19.307 28.9771 18.1692 31.6082 18.1692C32.746 18.1692 33.8127 18.3825 34.8082 18.8092C35.7327 19.2359 36.5149 19.7337 37.0127 20.3737C37.5105 21.0137 37.866 21.7248 38.0082 22.5781C38.2216 23.3603 38.2927 24.5692 38.2927 26.0625V38.2225H38.2216Z" fill="#0077B5"/>
</g>
</g>
</svg>
