<svg width="24" height="24" viewBox="0 0 24 24" fill="none" xmlns="http://www.w3.org/2000/svg">
<g id="Living Room">
<path id="Vector" d="M3.03613 18.4565H20.9639V13.9124H3.03613V18.4565ZM3.37363 14.2499H20.6264V18.119H3.37363V14.2499Z" fill="#0D0000" stroke="#0D0000" stroke-width="0.5"/>
<path id="Vector_2" d="M22.1388 12.7254V7.67974C22.1388 7.3308 21.8549 7.04693 21.506 7.04693H20.0843C19.7354 7.04693 19.4515 7.3308 19.4515 7.67974V12.7254H13.6242V11.8084H17.5998C17.8496 11.8084 18.0528 11.6051 18.0528 11.3554V4.80945C18.0528 4.5597 17.8496 4.35645 17.5998 4.35645H6.31101C6.06121 4.35645 5.85796 4.5597 5.85796 4.80945V11.3554C5.85796 11.6051 6.06117 11.8084 6.31101 11.8084H10.2866V12.7254H4.53642V7.67974C4.53642 7.3308 4.25254 7.04693 3.90361 7.04693H2.48193C2.133 7.04693 1.84912 7.3308 1.84912 7.67974V12.7254V13.0629V18.9596C1.84912 19.3367 2.15592 19.6436 2.53307 19.6436H21.4669C21.844 19.6436 22.1508 19.3367 22.1508 18.9596V12.7254H22.1388ZM19.789 7.67974C19.789 7.51685 19.9214 7.38438 20.0843 7.38438H21.506C21.6689 7.38438 21.8013 7.51685 21.8013 7.67974V12.7254H19.789V7.67974ZM6.31101 11.4708C6.24731 11.4708 6.19551 11.419 6.19551 11.3553V4.80945C6.19551 4.74579 6.24731 4.69395 6.31101 4.69395H17.5998C17.6634 4.69395 17.7153 4.74574 17.7153 4.80945V11.3554C17.7153 11.419 17.6635 11.4709 17.5998 11.4709H13.6242H10.2866H6.31101V11.4708ZM13.2867 11.8083V12.7254H10.6241V11.8083H13.2867ZM2.18662 7.67974C2.18662 7.51685 2.31909 7.38438 2.48193 7.38438H3.90361C4.06645 7.38438 4.19892 7.51685 4.19892 7.67974V12.7254H2.18662V7.67974ZM21.8134 18.9596C21.8134 19.1506 21.658 19.306 21.4669 19.306H2.53312C2.34206 19.306 2.18662 19.1507 2.18662 18.9596V13.0629H4.53642H10.2866H13.6242H19.4514H21.8133L21.8134 18.9596Z" fill="#0D0000" stroke="#0D0000" stroke-width="0.5"/>
<path id="Vector_3" d="M3.20486 8.10669C2.79681 8.10669 2.46484 8.43861 2.46484 8.84666C2.46484 9.2547 2.79681 9.58663 3.20486 9.58663C3.61291 9.58663 3.94483 9.2547 3.94483 8.84666C3.94483 8.43861 3.61291 8.10669 3.20486 8.10669ZM3.20486 9.24913C2.98295 9.24913 2.80239 9.06856 2.80239 8.84666C2.80239 8.62475 2.98295 8.44419 3.20486 8.44419C3.42677 8.44419 3.60733 8.62475 3.60733 8.84666C3.60733 9.06856 3.42677 9.24913 3.20486 9.24913Z" fill="#0D0000"/>
<path id="Vector_4" d="M3.20486 10.5232C2.79681 10.5232 2.46484 10.8551 2.46484 11.2632C2.46484 11.6712 2.79681 12.0031 3.20486 12.0031C3.61291 12.0031 3.94483 11.6712 3.94483 11.2632C3.94483 10.8551 3.61291 10.5232 3.20486 10.5232ZM3.20486 11.6656C2.98295 11.6656 2.80239 11.4851 2.80239 11.2632C2.80239 11.0413 2.98295 10.8606 3.20486 10.8606C3.42677 10.8606 3.60733 11.0413 3.60733 11.2632C3.60733 11.4851 3.42677 11.6656 3.20486 11.6656Z" fill="#0D0000"/>
<path id="Vector_5" d="M20.7951 8.10669C20.3871 8.10669 20.0552 8.43861 20.0552 8.84666C20.0552 9.2547 20.3871 9.58663 20.7951 9.58663C21.2032 9.58663 21.5351 9.2547 21.5351 8.84666C21.5351 8.43861 21.2032 8.10669 20.7951 8.10669ZM20.7951 9.24913C20.5732 9.24913 20.3927 9.06856 20.3927 8.84666C20.3927 8.62475 20.5732 8.44419 20.7951 8.44419C21.0171 8.44419 21.1977 8.62475 21.1977 8.84666C21.1977 9.06856 21.0171 9.24913 20.7951 9.24913Z" fill="#0D0000"/>
<path id="Vector_6" d="M20.7951 10.5232C20.3871 10.5232 20.0552 10.8551 20.0552 11.2632C20.0552 11.6712 20.3871 12.0031 20.7951 12.0031C21.2032 12.0031 21.5351 11.6712 21.5351 11.2632C21.5351 10.8551 21.2032 10.5232 20.7951 10.5232ZM20.7951 11.6656C20.5732 11.6656 20.3927 11.4851 20.3927 11.2632C20.3927 11.0413 20.5732 10.8606 20.7951 10.8606C21.0171 10.8606 21.1977 11.0413 21.1977 11.2632C21.1977 11.4851 21.0171 11.6656 20.7951 11.6656Z" fill="#0D0000"/>
</g>
</svg>
