<svg width="24" height="24" viewBox="0 0 24 24" fill="none" xmlns="http://www.w3.org/2000/svg">
<g id="Location">
<g id="Iconly/Light-Outline/Location">
<g id="Location_2">
<path id="Combined-Shape" fill-rule="evenodd" clip-rule="evenodd" d="M12.2495 2C16.7985 2 20.4995 5.729 20.4995 10.313C20.4995 15.948 14.0435 21.5 12.2495 21.5C10.4555 21.5 3.99951 15.948 3.99951 10.313C3.99951 5.729 7.70051 2 12.2495 2ZM12.2495 3.5C8.52751 3.5 5.49951 6.557 5.49951 10.313C5.49951 15.092 11.1235 19.748 12.2495 19.996C13.3755 19.747 18.9995 15.091 18.9995 10.313C18.9995 6.557 15.9715 3.5 12.2495 3.5ZM12.2505 7C14.0425 7 15.5005 8.458 15.5005 10.251C15.5005 12.043 14.0425 13.5 12.2505 13.5C10.4585 13.5 9.00051 12.043 9.00051 10.251C9.00051 8.458 10.4585 7 12.2505 7ZM12.2505 8.5C11.2855 8.5 10.5005 9.285 10.5005 10.251C10.5005 11.216 11.2855 12 12.2505 12C13.2155 12 14.0005 11.216 14.0005 10.251C14.0005 9.285 13.2155 8.5 12.2505 8.5Z" fill="#0D0000"/>
</g>
</g>
</g>
</svg>
