<svg width="24" height="24" viewBox="0 0 24 24" fill="none" xmlns="http://www.w3.org/2000/svg">
<g id="Lock">
<g id="Iconly/Light-Outline/Lock">
<g id="Lock_2">
<path id="Combined-Shape" fill-rule="evenodd" clip-rule="evenodd" d="M12.3749 2.00201C15.2949 2.00201 17.6729 4.38001 17.6729 7.30301L17.6728 8.87961C19.448 9.49742 20.725 11.1874 20.725 13.1708V17.4598C20.725 19.9648 18.688 22.0018 16.183 22.0018H8.542C6.037 22.0018 4 19.9648 4 17.4598V13.1708C4 11.1878 5.27652 9.49806 7.05121 8.87996L7.0519 7.30301C7.0579 5.86301 7.6149 4.53401 8.6199 3.53801C9.6259 2.54101 10.9539 1.96401 12.3749 2.00201ZM16.183 10.1288H8.542C6.864 10.1288 5.5 11.4928 5.5 13.1708V17.4598C5.5 19.1378 6.864 20.5018 8.542 20.5018H16.183C17.86 20.5018 19.225 19.1378 19.225 17.4598V13.1708C19.225 11.4928 17.86 10.1288 16.183 10.1288ZM12.3623 13.4546C12.7763 13.4546 13.1123 13.7906 13.1123 14.2046V16.4256C13.1123 16.8396 12.7763 17.1756 12.3623 17.1756C11.9483 17.1756 11.6123 16.8396 11.6123 16.4256V14.2046C11.6123 13.7906 11.9483 13.4546 12.3623 13.4546ZM12.3719 3.50201H12.3559C11.3429 3.50201 10.3939 3.89201 9.6769 4.60301C8.9549 5.31701 8.5559 6.27001 8.5519 7.28601L8.551 8.62824H16.172L16.1729 7.30301C16.1729 5.20701 14.4679 3.50201 12.3719 3.50201Z" fill="#0D0000"/>
</g>
</g>
</g>
</svg>
