<svg width="24" height="24" viewBox="0 0 24 24" fill="none" xmlns="http://www.w3.org/2000/svg">
<g id="Object">
<g id="Iconly/Light-Outline/Send">
<g id="Send">
<path id="Fill-1" fill-rule="evenodd" clip-rule="evenodd" d="M10.8048 14.8178L14.4618 20.7508C14.6218 21.0108 14.8718 21.0078 14.9728 20.9938C15.0738 20.9798 15.3168 20.9178 15.4048 20.6228L19.9778 5.17777C20.0578 4.90477 19.9108 4.71877 19.8448 4.65277C19.7808 4.58677 19.5978 4.44577 19.3328 4.52077L3.87682 9.04677C3.58382 9.13277 3.51982 9.37877 3.50582 9.47977C3.49182 9.58277 3.48782 9.83777 3.74682 10.0008L9.74782 13.7538L15.0498 8.39577C15.3408 8.10177 15.8158 8.09877 16.1108 8.38977C16.4058 8.68077 16.4078 9.15677 16.1168 9.45077L10.8048 14.8178ZM14.8948 22.4998C14.1988 22.4998 13.5608 22.1458 13.1848 21.5378L9.30782 15.2468L2.95182 11.2718C2.26682 10.8428 1.90882 10.0788 2.01982 9.27577C2.12982 8.47277 2.68082 7.83477 3.45482 7.60777L18.9108 3.08177C19.6218 2.87377 20.3838 3.07077 20.9078 3.59277C21.4318 4.11977 21.6268 4.88977 21.4148 5.60377L16.8418 21.0478C16.6128 21.8248 15.9728 22.3738 15.1718 22.4808C15.0778 22.4928 14.9868 22.4998 14.8948 22.4998Z" fill="#0D0000"/>
</g>
</g>
</g>
</svg>
