<svg width="24" height="24" viewBox="0 0 24 24" fill="none" xmlns="http://www.w3.org/2000/svg">
<g id="Paper Plus">
<g id="Iconly/Bold/Paper-Plus">
<g id="Paper-Plus">
<path id="Vector" d="M13.2525 2C13.5099 2 13.7079 2.21 13.7079 2.46V5.68C13.7079 7.51 15.203 9.01 17.0149 9.02C17.7673 9.02 18.3614 9.03 18.8168 9.03C19.1238 9.03 19.6287 9.02 20.0545 9.02C20.302 9.02 20.5 9.22 20.5 9.47V17.51C20.5 19.99 18.5099 22 16.0446 22H8.17327C5.59901 22 3.5 19.89 3.5 17.29V6.51C3.5 4.03 5.5 2 7.96535 2H13.2525ZM11.8168 9.77C11.4109 9.77 11.0743 10.1 11.0743 10.51V12.24H9.37129C8.96535 12.24 8.62871 12.57 8.62871 12.99C8.62871 13.4 8.96535 13.73 9.37129 13.73H11.0743V15.46C11.0743 15.87 11.4109 16.2 11.8168 16.2C12.2228 16.2 12.5495 15.87 12.5495 15.46V13.73H14.2624C14.6683 13.73 15.005 13.4 15.005 12.99C15.005 12.57 14.6683 12.24 14.2624 12.24H12.5495V10.51C12.5495 10.1 12.2228 9.77 11.8168 9.77ZM15.1496 2.9062C15.1496 2.4752 15.6674 2.2612 15.9635 2.5722C17.0338 3.6962 18.9041 5.6612 19.9496 6.7592C20.2387 7.0622 20.0268 7.5652 19.61 7.5662C18.7961 7.5692 17.8367 7.5662 17.1466 7.5592C16.0516 7.5592 15.1496 6.6482 15.1496 5.5422V2.9062Z" fill="black"/>
</g>
</g>
</g>
</svg>
