<svg width="24" height="24" viewBox="0 0 24 24" fill="none" xmlns="http://www.w3.org/2000/svg">
<g id="Paper">
<g id="Iconly/Bold/Paper">
<g id="Paper_2">
<path id="Vector" d="M13.2525 2C13.5099 2 13.7079 2.21 13.7079 2.46V5.68C13.7079 7.51 15.203 9.01 17.0149 9.02C17.7673 9.02 18.3614 9.03 18.8168 9.03L18.9855 9.02926C19.2899 9.02694 19.6997 9.02 20.0545 9.02C20.302 9.02 20.5 9.22 20.5 9.47V17.51C20.5 19.99 18.5099 22 16.0545 22H8.17327C5.59901 22 3.5 19.89 3.5 17.29V6.51C3.5 4.03 5.5 2 7.96535 2H13.2525ZM14.3119 14.9H8.92574C8.5198 14.9 8.18317 15.23 8.18317 15.64C8.18317 16.05 8.5198 16.39 8.92574 16.39H14.3119C14.7178 16.39 15.0545 16.05 15.0545 15.64C15.0545 15.23 14.7178 14.9 14.3119 14.9ZM12.2723 9.9H8.92574C8.5198 9.9 8.18317 10.24 8.18317 10.65C8.18317 11.06 8.5198 11.39 8.92574 11.39H12.2723C12.6782 11.39 13.0149 11.06 13.0149 10.65C13.0149 10.24 12.6782 9.9 12.2723 9.9ZM15.1507 2.906C15.1507 2.475 15.6685 2.261 15.9646 2.572C17.0349 3.696 18.9051 5.661 19.9507 6.759C20.2398 7.062 20.0279 7.565 19.6111 7.566C18.7972 7.569 17.8378 7.566 17.1477 7.559C16.0527 7.559 15.1507 6.648 15.1507 5.542V2.906Z" fill="black"/>
</g>
</g>
</g>
</svg>
