<svg width="24" height="24" viewBox="0 0 24 24" fill="none" xmlns="http://www.w3.org/2000/svg">
<g id="Paper Download">
<g id="Iconly/Bold/Paper-Download">
<g id="Paper-Download">
<path id="Vector" d="M13.2525 2C13.5 2 13.7079 2.21 13.7079 2.46V5.68C13.7079 7.51 15.1931 9.01 17.0149 9.02C17.7574 9.02 18.3614 9.03 18.8069 9.03L18.9756 9.02926C19.28 9.02694 19.6898 9.02 20.0446 9.02C20.302 9.02 20.5 9.22 20.5 9.47V17.51C20.5 19.99 18.5 22 16.0446 22H8.17327C5.58911 22 3.5 19.89 3.5 17.29V6.51C3.5 4.03 5.4901 2 7.96535 2H13.2525ZM11.6386 8.74C11.2327 8.74 10.896 9.07 10.896 9.49V14.31L9.32178 12.71C9.03465 12.42 8.56931 12.42 8.28218 12.71C7.99505 13 7.99505 13.47 8.28218 13.77L11.1139 16.64C11.1832 16.71 11.2624 16.76 11.3515 16.8C11.4406 16.84 11.5396 16.86 11.6386 16.86C11.7376 16.86 11.8267 16.84 11.9158 16.8C12.005 16.76 12.0842 16.71 12.1535 16.64L14.995 13.77C15.2822 13.47 15.2822 13 14.9851 12.71C14.698 12.42 14.2327 12.42 13.9455 12.71L12.3713 14.31V9.49C12.3713 9.07 12.0446 8.74 11.6386 8.74ZM15.145 2.9061C15.145 2.4751 15.6629 2.2611 15.9579 2.5721C17.0292 3.6961 18.8995 5.6611 19.945 6.7591C20.2342 7.0621 20.0223 7.5651 19.6045 7.5661C18.7916 7.5691 17.8322 7.5661 17.1421 7.5591C16.047 7.5591 15.145 6.6481 15.145 5.5421V2.9061Z" fill="black"/>
</g>
</g>
</g>
</svg>
