<svg width="24" height="24" viewBox="0 0 24 24" fill="none" xmlns="http://www.w3.org/2000/svg">
<g id="Paper Upload">
<g id="Iconly/Bold/Paper-Upload">
<g id="Paper-Upload">
<path id="Vector" d="M13.2525 2C13.5 2 13.7079 2.21 13.7079 2.46V5.68C13.7079 7.51 15.1931 9.01 17.0149 9.02C17.7574 9.02 18.3515 9.03 18.8069 9.03C19.1139 9.03 19.6188 9.02 20.0446 9.02C20.2921 9.02 20.5 9.22 20.5 9.47V17.51C20.5 19.99 18.5 22 16.0446 22H8.17327C5.58911 22 3.5 19.89 3.5 17.29V6.51C3.5 4.03 5.4901 2 7.96535 2H13.2525ZM11.6386 8.74C11.5396 8.74 11.4406 8.76 11.3515 8.8C11.2624 8.84 11.1832 8.89 11.1139 8.96L8.28218 11.84C7.99505 12.13 7.99505 12.6 8.28218 12.89C8.56931 13.18 9.03465 13.18 9.32178 12.89L10.896 11.29V16.12C10.896 16.53 11.2228 16.86 11.6386 16.86C12.0446 16.86 12.3713 16.53 12.3713 16.12V11.29L13.9455 12.89C14.2327 13.18 14.698 13.18 14.9851 12.89C15.2822 12.6 15.2822 12.13 14.995 11.84L12.1535 8.96C12.0842 8.89 12.005 8.84 11.9158 8.8C11.8267 8.76 11.7376 8.74 11.6386 8.74ZM15.1452 2.906C15.1452 2.475 15.6621 2.261 15.9581 2.572C17.0294 3.696 18.8997 5.661 19.9452 6.759C20.2334 7.062 20.0215 7.565 19.6047 7.566C18.7908 7.569 17.8324 7.566 17.1423 7.559C16.0472 7.559 15.1452 6.648 15.1452 5.542V2.906Z" fill="black"/>
</g>
</g>
</g>
</svg>
