<svg width="50" height="71" viewBox="0 0 50 71" fill="none" xmlns="http://www.w3.org/2000/svg">
<g id="Pin Point - Fill">
<g id="&#240;&#159;&#166;&#134; icon &#34;marker&#34;">
<path id="Vector" d="M24.9461 0C13.4327 0 0 7.0361 0 24.9461C0 37.0989 19.1894 63.9639 24.9461 71C30.0633 63.9639 49.8922 37.7389 49.8922 24.9461C49.8922 7.0361 36.4594 0 24.9461 0Z" fill="#E85646"/>
</g>
<g id="Icon">
<path id="path0" fill-rule="evenodd" clip-rule="evenodd" d="M23.9097 12.0237C18.4766 12.3869 13.8332 16.7207 13.074 22.1371C12.9416 23.082 12.9965 25.3369 13.1626 25.7673C13.1984 25.8602 13.1539 25.8705 14.2969 25.5041L14.7908 25.3458L14.7886 25.1404C14.7873 25.0274 14.7654 24.6798 14.7401 24.3679C14.5797 22.404 15.11 20.1788 16.1175 18.5884C16.2342 18.4042 16.3297 18.2461 16.3297 18.2371C16.3297 18.2282 16.4483 18.0642 16.5932 17.8726C20.931 12.1395 29.2596 12.4596 33.067 18.5058C34.7604 21.1949 35.008 24.5828 33.7331 27.6192C32.5816 30.3618 30.2663 32.4793 27.5466 33.2774C25.5025 33.8772 23.8238 33.8618 21.3071 33.2203C20.1071 32.9144 18.6628 32.876 18.0295 33.1331L17.9069 33.1829L18.0207 33.2898C19.5411 34.7176 23.3506 35.7406 25.8666 35.3966C27.048 35.2352 28.2729 34.9184 29.0392 34.5764C31.0888 33.6613 32.8284 32.2839 33.9571 30.6821C34.3156 30.1732 34.5675 29.7947 34.5675 29.7647C34.5675 29.7471 34.6164 29.6656 34.6763 29.5836C34.7887 29.4295 35.1586 28.7224 35.3643 28.2684C36.4713 25.8265 36.5722 22.1135 35.5959 19.7551C35.5787 19.7135 35.4907 19.5008 35.4003 19.2825C35.1933 18.7825 34.92 18.2264 34.7212 17.9007C34.6367 17.7622 34.5675 17.6401 34.5675 17.6294C34.5675 17.569 33.737 16.4408 33.4325 16.0875C31.0547 13.3289 27.4429 11.7875 23.9097 12.0237ZM23.7894 15.0891C23.8028 15.16 23.8397 15.311 23.8713 15.4247C24.1329 16.3655 23.6601 17.7916 22.7797 18.7174C21.8251 19.7212 21.512 19.815 21.3657 19.1407C21.2657 18.6793 20.3052 19.6793 19.9291 20.6364C19.1857 22.5283 19.7626 24.6222 21.379 25.8991C21.8574 26.2771 22.7702 26.6984 22.9284 26.6142C23.0679 26.5398 23.037 26.4849 22.7203 26.2451C21.5097 25.3281 20.8865 23.6656 21.2519 22.3282C21.4103 21.7484 21.6846 21.4437 21.6865 21.8453C21.6884 22.2562 22.1227 22.6557 22.7405 22.8149C23.1218 22.9133 23.1058 22.9272 23.0763 22.5247C23.0331 21.9318 23.2208 21.061 23.4905 20.6029C23.5643 20.4775 23.6248 20.3653 23.6248 20.3536C23.6248 20.2537 24.4042 19.4113 24.6424 19.2539C24.7662 19.172 24.7856 19.217 24.7341 19.4654C24.5201 20.4965 24.8012 21.2723 25.8125 22.441C26.4689 23.1996 26.5627 23.3181 26.6634 23.5147C26.8857 23.9493 27.1167 23.8197 27.349 23.1304C27.5321 22.5877 27.6609 22.8603 27.6658 23.8008C27.6713 24.8744 27.3038 25.642 26.4854 26.2657C26.3331 26.3818 26.2085 26.4979 26.2085 26.5236C26.2085 26.9251 27.7606 26.1165 28.3717 25.3967C28.446 25.3091 28.538 25.2035 28.5761 25.1619C28.6141 25.1202 28.6817 25.0267 28.7262 24.954C28.7707 24.8812 28.8172 24.8131 28.8295 24.8027C28.8791 24.7605 29.0994 24.3854 29.2624 24.0654C30.266 22.0955 29.8984 19.4521 28.3932 17.8147C28.0844 17.4787 28.0496 17.4997 28.0646 18.0121C28.0949 19.0465 27.5537 20.0254 26.6069 20.648C25.8984 21.1141 25.8344 21.0207 26.1198 19.9368C26.4804 18.5665 26.36 17.6581 25.6681 16.5293C25.1789 15.7313 23.6954 14.594 23.7894 15.0891ZM30.7049 25.8378C30.3428 25.9556 30.169 26.1361 29.7655 26.8144C28.4628 29.0043 27.3662 29.9101 25.4884 30.3481C24.1881 30.6515 22.1997 30.3936 22.0858 29.907C22.0444 29.7303 22.1266 29.684 22.523 29.6609C23.7861 29.5871 24.9726 29.3276 25.8245 28.9387C26.5032 28.6288 26.672 28.0573 26.2288 27.5692C25.9286 27.2386 25.6167 27.2251 24.7077 27.5038C22.8566 28.0711 21.7221 27.9929 20.0722 27.1843C18.0359 26.1862 17.0879 26.1651 14.639 27.0637C13.435 27.5054 13.5168 27.4172 13.768 28.0025C14.3726 29.4112 15.2587 30.7791 16.1827 31.7303L16.5767 32.1358L16.9922 32.0246C17.6696 31.8433 18.142 31.7803 18.7994 31.7836C19.4275 31.7867 19.5369 31.7974 21.2691 32.0257C24.6462 32.4711 26.1859 32.3539 27.8613 31.524C28.5352 31.1901 29.3676 30.4995 29.8783 29.8503C29.9601 29.7463 30.0374 29.6528 30.0503 29.6423C30.1003 29.6016 30.5887 28.94 30.6083 28.8864C30.6198 28.8551 30.7116 28.7071 30.8122 28.5576C31.0437 28.2137 31.6176 27.1566 31.7217 26.8823C31.967 26.2368 31.3684 25.6219 30.7049 25.8378Z" fill="#F9F8F8"/>
</g>
</g>
</svg>
