<svg width="51" height="71" viewBox="0 0 51 71" fill="none" xmlns="http://www.w3.org/2000/svg">
<g id="Pin point" clip-path="url(#clip0_121_753)">
<g id="Icon">
<path id="path0" fill-rule="evenodd" clip-rule="evenodd" d="M24.9097 12.0237C19.4766 12.3869 14.8332 16.7207 14.074 22.1371C13.9416 23.082 13.9965 25.3369 14.1626 25.7673C14.1984 25.8602 14.1539 25.8705 15.2969 25.5041L15.7908 25.3458L15.7886 25.1404C15.7873 25.0274 15.7654 24.6798 15.7401 24.3679C15.5797 22.404 16.11 20.1788 17.1175 18.5884C17.2342 18.4042 17.3297 18.2461 17.3297 18.2371C17.3297 18.2282 17.4483 18.0642 17.5932 17.8726C21.931 12.1395 30.2596 12.4596 34.067 18.5058C35.7604 21.1949 36.008 24.5828 34.7331 27.6192C33.5816 30.3618 31.2663 32.4793 28.5466 33.2774C26.5025 33.8772 24.8238 33.8618 22.3071 33.2203C21.1071 32.9144 19.6628 32.876 19.0295 33.1331L18.9069 33.1829L19.0207 33.2898C20.5411 34.7176 24.3506 35.7406 26.8666 35.3966C28.048 35.2352 29.2729 34.9184 30.0392 34.5764C32.0888 33.6613 33.8284 32.2839 34.9571 30.6821C35.3156 30.1732 35.5675 29.7947 35.5675 29.7647C35.5675 29.7471 35.6164 29.6656 35.6763 29.5836C35.7887 29.4295 36.1586 28.7224 36.3643 28.2684C37.4713 25.8265 37.5722 22.1135 36.5959 19.7551C36.5787 19.7135 36.4907 19.5008 36.4003 19.2825C36.1933 18.7825 35.92 18.2264 35.7212 17.9007C35.6367 17.7622 35.5675 17.6401 35.5675 17.6294C35.5675 17.569 34.737 16.4408 34.4325 16.0875C32.0547 13.3289 28.4429 11.7875 24.9097 12.0237ZM24.7894 15.0891C24.8028 15.16 24.8397 15.311 24.8713 15.4247C25.1329 16.3655 24.6601 17.7916 23.7797 18.7174C22.8251 19.7212 22.512 19.815 22.3657 19.1407C22.2657 18.6793 21.3052 19.6793 20.9291 20.6364C20.1857 22.5283 20.7626 24.6222 22.379 25.8991C22.8574 26.2771 23.7702 26.6984 23.9284 26.6142C24.0679 26.5398 24.037 26.4849 23.7203 26.2451C22.5097 25.3281 21.8865 23.6656 22.2519 22.3282C22.4103 21.7484 22.6846 21.4437 22.6865 21.8453C22.6884 22.2562 23.1227 22.6557 23.7405 22.8149C24.1218 22.9133 24.1058 22.9272 24.0763 22.5247C24.0331 21.9318 24.2208 21.061 24.4905 20.6029C24.5643 20.4775 24.6248 20.3653 24.6248 20.3536C24.6248 20.2537 25.4042 19.4113 25.6424 19.2539C25.7662 19.172 25.7856 19.217 25.7341 19.4654C25.5201 20.4965 25.8012 21.2723 26.8125 22.441C27.4689 23.1996 27.5627 23.3181 27.6634 23.5147C27.8857 23.9493 28.1167 23.8197 28.349 23.1304C28.5321 22.5877 28.6609 22.8603 28.6658 23.8008C28.6713 24.8744 28.3038 25.642 27.4854 26.2657C27.3331 26.3818 27.2085 26.4979 27.2085 26.5236C27.2085 26.9251 28.7606 26.1165 29.3717 25.3967C29.446 25.3091 29.538 25.2035 29.5761 25.1619C29.6141 25.1202 29.6817 25.0267 29.7262 24.954C29.7707 24.8812 29.8172 24.8131 29.8295 24.8027C29.8791 24.7605 30.0994 24.3854 30.2624 24.0654C31.266 22.0955 30.8984 19.4521 29.3932 17.8147C29.0844 17.4787 29.0496 17.4997 29.0646 18.0121C29.0949 19.0465 28.5537 20.0254 27.6069 20.648C26.8984 21.1141 26.8344 21.0207 27.1198 19.9368C27.4804 18.5665 27.36 17.6581 26.6681 16.5293C26.1789 15.7313 24.6954 14.594 24.7894 15.0891ZM31.7049 25.8378C31.3428 25.9556 31.169 26.1361 30.7655 26.8144C29.4628 29.0043 28.3662 29.9101 26.4884 30.3481C25.1881 30.6515 23.1997 30.3936 23.0858 29.907C23.0444 29.7303 23.1266 29.684 23.523 29.6609C24.7861 29.5871 25.9726 29.3276 26.8245 28.9387C27.5032 28.6288 27.672 28.0573 27.2288 27.5692C26.9286 27.2386 26.6167 27.2251 25.7077 27.5038C23.8566 28.0711 22.7221 27.9929 21.0722 27.1843C19.0359 26.1862 18.0879 26.1651 15.639 27.0637C14.435 27.5054 14.5168 27.4172 14.768 28.0025C15.3726 29.4112 16.2587 30.7791 17.1827 31.7303L17.5767 32.1358L17.9922 32.0246C18.6696 31.8433 19.142 31.7803 19.7994 31.7836C20.4275 31.7867 20.5369 31.7974 22.2691 32.0257C25.6462 32.4711 27.1859 32.3539 28.8613 31.524C29.5352 31.1901 30.3676 30.4995 30.8783 29.8503C30.9601 29.7463 31.0374 29.6528 31.0503 29.6423C31.1003 29.6016 31.5887 28.94 31.6083 28.8864C31.6198 28.8551 31.7116 28.7071 31.8122 28.5576C32.0437 28.2137 32.6176 27.1566 32.7217 26.8823C32.967 26.2368 32.3684 25.6219 31.7049 25.8378Z" fill="#E85646"/>
</g>
<path id="Vector" d="M25.6385 71L23.2468 68.1155C18.6601 62.5664 0.0247583 37.4661 0.0247583 25.1844C-0.119605 22.0227 0.368423 18.864 1.46098 15.8885C2.55353 12.913 4.2292 10.1791 6.39231 7.84286C8.55542 5.50663 11.1636 3.61385 14.0679 2.2726C16.9722 0.93135 20.1157 0.167908 23.3189 0.0258699C24.0484 -0.00862331 24.7758 -0.00862331 25.5009 0.0258699C28.7041 -0.114845 31.904 0.368586 34.9179 1.44856C37.9318 2.52853 40.7007 4.18389 43.0664 6.32012C45.4321 8.45634 47.3483 11.0316 48.7057 13.8988C50.063 16.766 50.8348 19.869 50.9771 23.0307C51.0076 23.7464 51.0076 24.46 50.9771 25.1714C50.9771 35.5194 39.1432 52.7746 28.8296 66.6603L25.6385 71ZM25.5009 5.78193C22.8737 5.60721 20.2391 5.98932 17.7738 6.90259C15.3086 7.81586 13.0699 9.23915 11.208 11.0769C9.34606 12.9147 7.90405 15.1243 6.97878 17.5576C6.0535 19.9908 5.66637 22.5913 5.84339 25.1844C5.84339 33.3851 18.1818 52.0956 25.4157 61.5316C31.5423 53.2403 45.1453 34.2582 45.1453 25.1844C45.3224 22.5913 44.9352 19.9908 44.0099 17.5576C43.0847 15.1243 41.6427 12.9147 39.7807 11.0769C37.9188 9.23915 35.6801 7.81586 33.2149 6.90259C30.7497 5.98932 28.115 5.60721 25.4878 5.78193H25.5009Z" fill="#E85646"/>
</g>
<defs>
<clipPath id="clip0_121_753">
<rect width="51" height="71" fill="white"/>
</clipPath>
</defs>
</svg>
