<svg width="38" height="38" viewBox="0 0 38 38" fill="none" xmlns="http://www.w3.org/2000/svg">
<g id="Plus" filter="url(#filter0_d_20_472)">
<path id="Vector" d="M19.7501 11.3076C19.7501 10.8934 19.4144 10.5576 19.0001 10.5576C18.5859 10.5576 18.2501 10.8934 18.2501 11.3076H19.7501ZM18.2501 18.6923C18.2501 19.1065 18.5859 19.4423 19.0001 19.4423C19.4144 19.4423 19.7501 19.1065 19.7501 18.6923H18.2501ZM15.3078 14.1511C14.8936 14.1511 14.5578 14.4869 14.5578 14.9011C14.5578 15.3153 14.8936 15.6511 15.3078 15.6511V14.1511ZM22.6925 15.6511C23.1067 15.6511 23.4425 15.3153 23.4425 14.9011C23.4425 14.4869 23.1067 14.1511 22.6925 14.1511V15.6511ZM15.3078 5.78076H22.4815V4.28076H15.3078V5.78076ZM27.6392 10.9385V18.9033H29.1392V10.9385H27.6392ZM22.4815 24.061H15.3078V25.561H22.4815V24.061ZM10.1501 18.9033V10.9385H8.65015V18.9033H10.1501ZM15.3078 24.061C13.8942 24.061 12.9094 24.0594 12.1666 23.9595C11.4454 23.8626 11.0656 23.6855 10.7956 23.4155L9.73498 24.4761C10.3301 25.0713 11.0792 25.3268 11.9667 25.4461C12.8327 25.5626 13.9366 25.561 15.3078 25.561V24.061ZM8.65015 18.9033C8.65015 20.2745 8.64855 21.3784 8.76498 22.2444C8.88431 23.1319 9.13982 23.881 9.73498 24.4761L10.7956 23.4155C10.5256 23.1455 10.3486 22.7657 10.2516 22.0445C10.1517 21.3017 10.1501 20.3169 10.1501 18.9033H8.65015ZM27.6392 18.9033C27.6392 20.3169 27.6376 21.3017 27.5377 22.0445C27.4407 22.7657 27.2637 23.1455 26.9937 23.4155L28.0543 24.4761C28.6495 23.881 28.905 23.1319 29.0243 22.2444C29.1407 21.3784 29.1392 20.2745 29.1392 18.9033H27.6392ZM22.4815 25.561C23.8527 25.561 24.9566 25.5626 25.8226 25.4461C26.7101 25.3268 27.4592 25.0713 28.0543 24.4761L26.9937 23.4155C26.7237 23.6855 26.3439 23.8626 25.6227 23.9595C24.8799 24.0594 23.8951 24.061 22.4815 24.061V25.561ZM22.4815 5.78076C23.8951 5.78076 24.8799 5.78235 25.6227 5.88222C26.3439 5.97918 26.7237 6.15625 26.9937 6.42625L28.0543 5.36559C27.4592 4.77044 26.7101 4.51492 25.8226 4.39559C24.9566 4.27917 23.8527 4.28076 22.4815 4.28076V5.78076ZM29.1392 10.9385C29.1392 9.5672 29.1407 8.46331 29.0243 7.59735C28.905 6.70981 28.6495 5.96075 28.0543 5.36559L26.9937 6.42625C27.2637 6.69626 27.4407 7.07601 27.5377 7.79722C27.6376 8.54 27.6392 9.5248 27.6392 10.9385H29.1392ZM15.3078 4.28076C13.9366 4.28076 12.8327 4.27917 11.9667 4.39559C11.0792 4.51492 10.3301 4.77044 9.73498 5.36559L10.7956 6.42625C11.0656 6.15625 11.4454 5.97918 12.1666 5.88222C12.9094 5.78235 13.8942 5.78076 15.3078 5.78076V4.28076ZM10.1501 10.9385C10.1501 9.5248 10.1517 8.54 10.2516 7.79722C10.3486 7.07601 10.5256 6.69626 10.7956 6.42625L9.73498 5.36559C9.13982 5.96075 8.88431 6.70981 8.76498 7.59735C8.64855 8.46331 8.65015 9.5672 8.65015 10.9385H10.1501ZM18.2501 11.3076V14.9011H19.7501V11.3076H18.2501ZM18.2501 14.9011V18.6923H19.7501V14.9011H18.2501ZM15.3078 15.6511H19.0001V14.1511H15.3078V15.6511ZM19.0001 15.6511H22.6925V14.1511H19.0001V15.6511Z" fill="#0D0000"/>
</g>
<defs>
<filter id="filter0_d_20_472" x="-1" y="-1" width="40" height="40" filterUnits="userSpaceOnUse" color-interpolation-filters="sRGB">
<feFlood flood-opacity="0" result="BackgroundImageFix"/>
<feColorMatrix in="SourceAlpha" type="matrix" values="0 0 0 0 0 0 0 0 0 0 0 0 0 0 0 0 0 0 127 0" result="hardAlpha"/>
<feOffset dy="4"/>
<feGaussianBlur stdDeviation="4"/>
<feComposite in2="hardAlpha" operator="out"/>
<feColorMatrix type="matrix" values="0 0 0 0 0.152941 0 0 0 0 0.152941 0 0 0 0 0.152941 0 0 0 0.04 0"/>
<feBlend mode="normal" in2="BackgroundImageFix" result="effect1_dropShadow_20_472"/>
<feBlend mode="normal" in="SourceGraphic" in2="effect1_dropShadow_20_472" result="shape"/>
</filter>
</defs>
</svg>
