<svg width="24" height="24" viewBox="0 0 24 24" fill="none" xmlns="http://www.w3.org/2000/svg">
<g id="Smoke">
<path id="Vector" d="M20.6596 9.65249C20.8153 9.22311 20.894 8.77218 20.894 8.30811C20.894 6.12468 19.1175 4.34811 16.934 4.34811C16.7128 4.34811 16.4925 4.36593 16.2768 4.40249C15.7453 3.16311 14.7056 2.19749 13.4137 1.76718C10.9303 0.939364 8.23589 2.28655 7.4062 4.77186C7.40058 4.78686 7.39589 4.8028 7.39027 4.8178C6.71995 5.09718 6.17433 5.57718 5.81152 6.17343C4.36495 5.90624 2.85558 6.40499 1.85902 7.51218C1.09589 8.35968 0.707766 9.45374 0.767766 10.5919C0.826828 11.73 1.32652 12.7772 2.17308 13.5403C2.44589 13.7859 2.74402 13.9931 3.0637 14.1591C2.85652 14.9194 2.95683 15.7378 3.35995 16.4353C3.75933 17.1262 4.40339 17.6212 5.17402 17.8275C5.43183 17.8969 5.69339 17.9306 5.95308 17.9306C6.47058 17.9306 6.98152 17.7947 7.44183 17.5294C7.80277 17.3203 8.1187 17.0325 8.36808 16.6875H12.8437C13.154 16.6875 13.4062 16.4353 13.4062 16.125C13.4062 15.8147 13.154 15.5625 12.8437 15.5625H8.06245C7.85995 15.5625 7.67339 15.6712 7.57402 15.8466C7.40527 16.1419 7.1587 16.3931 6.87933 16.5553C6.44808 16.8037 5.94652 16.8694 5.46558 16.7409C4.98464 16.6125 4.58339 16.3041 4.33402 15.8728C4.02089 15.33 4.00167 14.6712 4.28152 14.1094C4.36327 13.9453 4.36842 13.7522 4.30467 13.6172C4.24092 13.4812 4.10808 13.3781 3.96745 13.3275C3.58308 13.1906 3.23339 12.9816 2.92683 12.705C2.30245 12.1425 1.93495 11.3719 1.89089 10.5328C1.84683 9.69468 2.13277 8.88936 2.69527 8.26499C3.37964 7.50561 4.39214 7.13624 5.3887 7.24968C5.3437 7.47093 5.31839 7.69968 5.31839 7.93311C5.31839 9.57374 6.47245 10.9378 8.03058 11.2453C8.11308 12.8381 9.37402 14.0625 10.9687 14.0625H15.1875C16.3284 14.0625 17.2556 14.9897 17.2556 16.1287V16.6875H18.3806V16.1287C18.3806 14.3691 16.9481 12.9375 15.1875 12.9375H10.9687C9.94964 12.9375 9.15089 12.1209 9.15089 11.0784V10.7456C9.15089 10.4428 8.91183 10.1944 8.60995 10.1831C7.39495 10.1381 6.44339 9.14999 6.44339 7.93311C6.44339 6.94405 7.07714 6.08061 8.02027 5.7853C8.20683 5.72624 8.34933 5.5753 8.39714 5.38593C8.41777 5.30343 8.44402 5.2153 8.47402 5.12624C9.10683 3.23061 11.1628 2.20311 13.0584 2.83499C14.1731 3.20624 15.0421 4.09968 15.3815 5.22655C15.4246 5.37093 15.524 5.49093 15.6562 5.56124C15.7893 5.63155 15.945 5.64655 16.0884 5.60061C16.3593 5.51624 16.6443 5.47311 16.934 5.47311C18.4978 5.47311 19.769 6.74436 19.769 8.30811C19.769 8.56874 19.7343 8.82374 19.6659 9.06936C19.2403 8.90155 18.7762 8.80968 18.2878 8.80968H17.7562C17.2368 7.4278 15.75 6.6178 14.279 6.97874C13.6396 7.13718 13.0856 7.49155 12.6768 8.00436C12.4837 8.24718 12.524 8.60155 12.7668 8.79468C13.0096 8.98874 13.364 8.94843 13.5571 8.70561C13.8093 8.38874 14.1525 8.16936 14.549 8.07093C15.5315 7.82999 16.5301 8.43205 16.7681 9.41624C16.8544 9.77343 17.0801 9.93468 17.3493 9.93468H18.2878C19.8084 9.93468 21 11.2125 21 12.8437V16.6875H22.125V12.8437C22.125 11.5312 21.5568 10.3847 20.6596 9.65249ZM16.1291 17.6308L23.25 17.625V20.0625H22.125V22.3125H17.25V20.0625H16.125L16.1291 17.6308Z" fill="#0D0000" stroke="#0D0000" stroke-width="0.5"/>
</g>
</svg>
