<svg width="24" height="24" viewBox="0 0 24 24" fill="none" xmlns="http://www.w3.org/2000/svg">
<g id="Temperature">
<path id="Vector" d="M15.5625 4.50588C15.5625 -0.178619 8.43675 -0.18012 8.4375 4.50588V14.4344C7.51125 15.3524 6.9375 16.6251 6.9375 18.0314C6.9375 20.8274 9.204 23.0939 12 23.0939C14.796 23.0939 17.0625 20.8274 17.0625 18.0314C17.0625 16.6251 16.4888 15.3524 15.5625 14.4344V4.50588ZM12 21.9374C9.825 21.9374 8.0625 20.1741 8.0625 17.9991C8.0625 16.8344 8.568 15.7881 9.37125 15.0674L9.375 15.0644L9.3795 15.0554C9.477 14.9639 9.54075 14.8379 9.55275 14.6976V14.6954C9.5535 14.6849 9.558 14.6774 9.55875 14.6669L9.56325 14.6451V4.50513C9.561 4.46538 9.5595 4.41888 9.5595 4.37163C9.5595 3.09363 10.5953 2.05788 11.8733 2.05788C11.9183 2.05788 11.9633 2.05938 12.0075 2.06163H12.0015C12.0398 2.05938 12.084 2.05788 12.129 2.05788C13.407 2.05788 14.4427 3.09363 14.4427 4.37163C14.4427 4.41888 14.4412 4.46538 14.4382 4.51113V4.50513V14.6451L14.4427 14.6669L14.448 14.6939C14.4592 14.8371 14.5238 14.9639 14.6213 15.0554L14.6257 15.0644C15.4327 15.7889 15.9382 16.8351 15.9382 17.9991C15.9382 20.1741 14.175 21.9366 12 21.9374ZM12.5625 16.0251V7.38363C12.5625 7.07313 12.3105 6.82113 12 6.82113C11.6895 6.82113 11.4375 7.07313 11.4375 7.38363V16.0251C10.5645 16.2786 9.9375 17.0706 9.9375 18.0096C9.9375 19.1489 10.8607 20.0721 12 20.0721C13.1392 20.0721 14.0625 19.1489 14.0625 18.0096C14.0625 17.0706 13.4355 16.2786 12.5767 16.0289L12.5625 16.0251ZM19.875 1.68738C18.5288 1.68738 17.4375 2.77863 17.4375 4.12488C17.4375 5.47113 18.5288 6.56238 19.875 6.56238C21.2212 6.56238 22.3125 5.47113 22.3125 4.12488C22.311 2.77938 21.2205 1.68888 19.875 1.68738ZM19.875 5.43738C19.1505 5.43738 18.5625 4.84938 18.5625 4.12488C18.5625 3.40038 19.1505 2.81238 19.875 2.81238C20.5995 2.81238 21.1875 3.40038 21.1875 4.12488C21.1868 4.84938 20.5995 5.43663 19.875 5.43738Z" fill="#0D0000" stroke="#0D0000" stroke-width="0.8"/>
</g>
</svg>
