<svg width="24" height="24" viewBox="0 0 24 24" fill="none" xmlns="http://www.w3.org/2000/svg">
<g id="Time Square">
<g id="Iconly/Bold/Time-Square">
<g id="Time-Square">
<path id="Vector" d="M16.3399 2C19.7299 2 21.9999 4.379 21.9999 7.919V16.089C21.9999 19.62 19.7299 22 16.3399 22H7.66988C4.27988 22 1.99988 19.62 1.99988 16.089V7.919C1.99988 4.379 4.27988 2 7.66988 2H16.3399ZM11.6499 6.919C11.2399 6.919 10.8999 7.26 10.8999 7.669V12.72C10.8999 12.98 11.0399 13.23 11.2699 13.36L15.1899 15.7C15.3099 15.78 15.4499 15.81 15.5799 15.81C15.8299 15.81 16.0799 15.68 16.2199 15.44C16.4399 15.089 16.3199 14.629 15.9599 14.41L12.3999 12.29V7.669C12.3999 7.26 12.0699 6.919 11.6499 6.919Z" fill="black"/>
</g>
</g>
</g>
</svg>
