<svg width="24" height="24" viewBox="0 0 24 24" fill="none" xmlns="http://www.w3.org/2000/svg">
<g id="Volume Up">
<g id="Iconly/Bold/Volume-Up">
<g id="Volume-Up">
<path id="Vector" d="M10.7576 3.00001C11.801 3.00001 12.7741 3.75154 13.1254 4.95612C13.2543 5.45964 13.3068 5.96423 13.3571 6.45057L13.4043 6.89289C13.5846 8.36909 13.5846 15.6213 13.4043 17.1082L13.3571 17.5666C13.312 18.0293 13.2659 18.5082 13.1327 19.0192C12.7814 20.2206 11.845 21 10.7817 21C10.7482 21 10.7146 21 10.6769 20.9989C10.0897 20.9989 9.45107 20.6382 9.08931 20.3236L5.56287 17.383H3.75194C2.35416 17.383 1.33073 16.3706 1.14513 14.8043C0.931217 13.2379 0.973161 10.5506 1.14513 9.12706C1.34751 7.64441 2.41918 6.61698 3.75194 6.61698H5.56287L9.0222 3.71933C9.43954 3.35645 10.1757 2.99787 10.7576 3.00001ZM19.2901 3.22107C19.7074 2.92476 20.281 3.03319 20.5673 3.45727C22.136 5.76658 23 8.80165 23 11.9999C23 15.2003 22.136 18.2343 20.5673 20.5436C20.3963 20.7959 20.1143 20.9473 19.8133 20.9473C19.6267 20.9473 19.4463 20.8893 19.2911 20.7798C18.8759 20.4824 18.7731 19.8973 19.0604 19.4722C20.4173 17.4731 21.165 14.8192 21.165 11.9999C21.165 9.1817 20.4173 6.52776 19.0604 4.52872C18.7731 4.10465 18.8759 3.51846 19.2901 3.22107ZM16.1283 6.2584C16.5467 5.96316 17.1182 6.06944 17.4066 6.49459C18.4195 7.98689 18.9784 9.94192 18.9784 12C18.9784 14.0581 18.4195 16.0131 17.4066 17.5054C17.2346 17.7577 16.9536 17.9091 16.6526 17.9091C16.466 17.9091 16.2846 17.8511 16.1294 17.7416C15.7141 17.4442 15.6114 16.8581 15.8997 16.434C16.7019 15.2519 17.1434 13.677 17.1434 12C17.1434 10.322 16.7019 8.74807 15.8997 7.56604C15.6114 7.14197 15.7141 6.55578 16.1283 6.2584Z" fill="black"/>
</g>
</g>
</g>
</svg>
