<svg width="24" height="24" viewBox="0 0 24 24" fill="none" xmlns="http://www.w3.org/2000/svg">
<g id="Wash Room">
<path id="Vector" d="M4.5 2.25V21.75H19.5V2.25H4.5ZM18.75 3V6H5.25V3H18.75ZM5.25 21V6.75H18.75V21H5.25Z" fill="#0D0000" stroke="#0D0000" stroke-width="0.8"/>
<path id="Vector_2" d="M7.5 5.25C7.91421 5.25 8.25 4.91421 8.25 4.5C8.25 4.08579 7.91421 3.75 7.5 3.75C7.08579 3.75 6.75 4.08579 6.75 4.5C6.75 4.91421 7.08579 5.25 7.5 5.25Z" fill="#0D0000"/>
<path id="Vector_3" d="M10.5 5.25C10.9142 5.25 11.25 4.91421 11.25 4.5C11.25 4.08579 10.9142 3.75 10.5 3.75C10.0858 3.75 9.75 4.08579 9.75 4.5C9.75 4.91421 10.0858 5.25 10.5 5.25Z" fill="#0D0000"/>
<path id="Vector_4" d="M13.5 5.25C13.9142 5.25 14.25 4.91421 14.25 4.5C14.25 4.08579 13.9142 3.75 13.5 3.75C13.0858 3.75 12.75 4.08579 12.75 4.5C12.75 4.91421 13.0858 5.25 13.5 5.25Z" fill="#0D0000"/>
<path id="Vector_5" d="M16.5 5.25C16.9142 5.25 17.25 4.91421 17.25 4.5C17.25 4.08579 16.9142 3.75 16.5 3.75C16.0858 3.75 15.75 4.08579 15.75 4.5C15.75 4.91421 16.0858 5.25 16.5 5.25Z" fill="#0D0000"/>
<path id="Vector_6" d="M12 8.25C10.9617 8.25 9.94662 8.55791 9.08326 9.13478C8.2199 9.71166 7.54699 10.5316 7.14963 11.4909C6.75227 12.4502 6.64831 13.5058 6.85088 14.5242C7.05345 15.5426 7.55347 16.4781 8.28769 17.2123C9.02192 17.9465 9.95738 18.4466 10.9758 18.6491C11.9942 18.8517 13.0498 18.7477 14.0091 18.3504C14.9684 17.953 15.7883 17.2801 16.3652 16.4167C16.9421 15.5534 17.25 14.5384 17.25 13.5C17.25 12.1076 16.6969 10.7723 15.7123 9.78769C14.7277 8.80312 13.3924 8.25 12 8.25ZM12 18C11.11 18 10.24 17.7361 9.49994 17.2416C8.75991 16.7471 8.18314 16.0443 7.84254 15.2221C7.50195 14.3998 7.41284 13.495 7.58647 12.6221C7.7601 11.7492 8.18869 10.9474 8.81802 10.318C9.44736 9.68868 10.2492 9.2601 11.1221 9.08647C11.995 8.91283 12.8998 9.00195 13.7221 9.34254C14.5443 9.68314 15.2471 10.2599 15.7416 10.9999C16.2361 11.74 16.5 12.61 16.5 13.5C16.5 14.6935 16.0259 15.8381 15.182 16.682C14.3381 17.5259 13.1935 18 12 18Z" fill="#0D0000" stroke="#0D0000" stroke-width="0.8"/>
<path id="Vector_7" d="M12 10.5C11.4067 10.5 10.8266 10.6759 10.3333 11.0056C9.83994 11.3352 9.45543 11.8038 9.22836 12.352C9.0013 12.9001 8.94189 13.5033 9.05765 14.0853C9.1734 14.6672 9.45912 15.2018 9.87868 15.6213C10.2982 16.0409 10.8328 16.3266 11.4147 16.4424C11.9967 16.5581 12.5999 16.4987 13.1481 16.2716C13.6962 16.0446 14.1648 15.6601 14.4944 15.1667C14.8241 14.6734 15 14.0933 15 13.5C15 12.7044 14.6839 11.9413 14.1213 11.3787C13.5587 10.8161 12.7957 10.5 12 10.5ZM12 15.75C11.555 15.75 11.12 15.618 10.75 15.3708C10.38 15.1236 10.0916 14.7722 9.92127 14.361C9.75098 13.9499 9.70642 13.4975 9.79323 13.061C9.88005 12.6246 10.0943 12.2237 10.409 11.909C10.7237 11.5943 11.1246 11.38 11.561 11.2932C11.9975 11.2064 12.4499 11.251 12.861 11.4213C13.2722 11.5916 13.6236 11.88 13.8708 12.25C14.118 12.62 14.25 13.055 14.25 13.5C14.25 14.0967 14.0129 14.669 13.591 15.091C13.169 15.5129 12.5967 15.75 12 15.75Z" fill="#0D0000" stroke="#0D0000" stroke-width="0.8"/>
</g>
</svg>
