<svg width="24" height="24" viewBox="0 0 24 24" fill="none" xmlns="http://www.w3.org/2000/svg">
<g id="Wifi" clip-path="url(#clip0_25_270)">
<g id="Group">
<path id="Vector" d="M3.9321 0.221924C1.88639 0.221924 0.222046 1.88627 0.222046 3.93198C0.222046 5.9777 1.88638 7.64198 3.9321 7.64198C10.7838 7.64198 16.358 13.2162 16.358 20.0679C16.358 22.1136 18.0224 23.7779 20.068 23.7779C22.1137 23.7779 23.778 22.1136 23.778 20.0679C23.778 9.12475 14.8752 0.221924 3.9321 0.221924ZM20.068 22.9508C18.4784 22.9508 17.1852 21.6575 17.1852 20.0679C17.1852 12.7601 11.2399 6.81482 3.93211 6.81482C2.34243 6.81482 1.04921 5.52159 1.04921 3.93196C1.04921 2.34235 2.34243 1.04906 3.93211 1.04906C14.4191 1.04906 22.9509 9.58083 22.9509 20.0678C22.9509 21.6575 21.6577 22.9508 20.068 22.9508Z" fill="#333333" stroke="#0D0000" stroke-width="0.9"/>
<path id="Vector_2" d="M2.63175 10.3813C1.31319 10.3813 0.240479 11.4541 0.240479 12.7727C0.240479 14.0912 1.3132 15.164 2.63175 15.164C6.03935 15.164 8.81171 17.9363 8.81171 21.3439C8.81171 22.6625 9.88441 23.7352 11.203 23.7352C12.5216 23.7352 13.5943 22.6625 13.5943 21.3439C13.5943 15.2991 8.67652 10.3813 2.63175 10.3813ZM11.203 22.908C10.3406 22.908 9.63886 22.2064 9.63886 21.3439C9.63886 17.4802 6.49552 14.3369 2.63176 14.3369C1.76929 14.3369 1.06764 13.6351 1.06764 12.7727C1.06764 11.9102 1.76931 11.2085 2.63176 11.2085C8.22044 11.2085 12.7672 15.7552 12.7672 21.3439C12.7671 22.2064 12.0655 22.908 11.203 22.908Z" fill="#333333" stroke="#0D0000" stroke-width="0.9"/>
<path id="Vector_3" d="M3.35369 17.5901C1.65946 17.5901 0.281128 18.9684 0.281128 20.6626C0.281128 22.3569 1.65946 23.7352 3.35369 23.7352C5.04791 23.7352 6.42625 22.3569 6.42625 20.6626C6.42625 18.9684 5.04791 17.5901 3.35369 17.5901ZM3.35369 22.9081C2.11555 22.9081 1.10827 21.9008 1.10827 20.6627C1.10827 19.4245 2.11555 18.4172 3.35369 18.4172C4.59182 18.4172 5.5991 19.4245 5.5991 20.6627C5.5991 21.9008 4.59182 22.9081 3.35369 22.9081Z" fill="#333333" stroke="#0D0000" stroke-width="0.9"/>
</g>
</g>
<defs>
<clipPath id="clip0_25_270">
<rect width="24" height="24" fill="white"/>
</clipPath>
</defs>
</svg>
