<svg width="24" height="24" viewBox="0 0 24 24" fill="none" xmlns="http://www.w3.org/2000/svg">
<g id="Wifi Filled" clip-path="url(#clip0_25_264)">
<g id="Page-1">
<g id="Dribbble-Light-Preview">
<g id="icons">
<path id="wifi-[#1025]" fill-rule="evenodd" clip-rule="evenodd" d="M3.95288 16V16.0098C1.76891 16.0098 0 18.0059 0 20.0059C0 22.0059 1.97643 24 3.95288 24C6.13686 24 7.90579 22.0059 7.90579 20.0059V20C7.90579 17.79 6.13686 16 3.95288 16ZM3.95288 8V12C7.90578 12 12.1413 16 12.1413 20H16.0942C16.0942 14 9.88222 8 3.95288 8ZM24 20H20.0471C20.0471 12 11.8587 4 3.95288 4V0C13.8351 0 24 8 24 20Z" fill="#0D0000"/>
</g>
</g>
</g>
</g>
<defs>
<clipPath id="clip0_25_264">
<rect width="24" height="24" fill="white"/>
</clipPath>
</defs>
</svg>
