<svg width="26" height="26" viewBox="0 0 26 26" fill="none" xmlns="http://www.w3.org/2000/svg">
<g id="Wifi Lock">
<g id="Group">
<path id="Vector" d="M4.93198 1.22192C2.88627 1.22192 1.22192 2.88627 1.22192 4.93198C1.22192 6.9777 2.88626 8.64198 4.93198 8.64198C11.7837 8.64198 17.3579 14.2162 17.3579 21.0679C17.3579 23.1136 19.0222 24.7779 21.0679 24.7779C23.1136 24.7779 24.7779 23.1136 24.7779 21.0679C24.7779 10.1248 15.8751 1.22192 4.93198 1.22192ZM21.0679 23.9508C19.4783 23.9508 18.1851 22.6575 18.1851 21.0679C18.1851 13.7601 12.2398 7.81482 4.93199 7.81482C3.34231 7.81482 2.04908 6.52159 2.04908 4.93196C2.04908 3.34235 3.34231 2.04906 4.93199 2.04906C15.419 2.04906 23.9508 10.5808 23.9508 21.0678C23.9508 22.6575 22.6575 23.9508 21.0679 23.9508Z" fill="#333333" stroke="#0D0000" stroke-width="0.9"/>
<path id="Vector_2" d="M3.63162 11.3813C2.31306 11.3813 1.24036 12.4541 1.24036 13.7727C1.24036 15.0912 2.31308 16.164 3.63162 16.164C7.03922 16.164 9.81158 18.9363 9.81158 22.3439C9.81158 23.6625 10.8843 24.7352 12.2029 24.7352C13.5215 24.7352 14.5942 23.6625 14.5942 22.3439C14.5942 16.2991 9.6764 11.3813 3.63162 11.3813ZM12.2029 23.908C11.3405 23.908 10.6387 23.2064 10.6387 22.3439C10.6387 18.4802 7.4954 15.3369 3.63164 15.3369C2.76917 15.3369 2.06752 14.6351 2.06752 13.7727C2.06752 12.9102 2.76918 12.2085 3.63164 12.2085C9.22032 12.2085 13.767 16.7552 13.767 22.3439C13.767 23.2064 13.0654 23.908 12.2029 23.908Z" fill="#333333" stroke="#0D0000" stroke-width="0.9"/>
</g>
<g id="Group 140">
<path id="Vector_3" d="M4.68339 22.959C4.68339 23.2225 4.42221 23.4362 4.10006 23.4362C3.7779 23.4362 3.51672 23.2225 3.51672 22.959C3.51672 22.6953 3.7779 22.4817 4.10006 22.4817C4.42221 22.4817 4.68339 22.6953 4.68339 22.959Z" fill="#0D0000"/>
<path id="Vector_4" fill-rule="evenodd" clip-rule="evenodd" d="M1.74412 20.8638C1.743 20.8233 1.74234 20.7801 1.74234 20.7344C1.74234 20.4524 1.76763 20.0694 1.87312 19.681C1.97772 19.2959 2.16814 18.8791 2.52112 18.5542C2.88629 18.2181 3.40511 18 4.09998 18C4.79484 18 5.31366 18.2181 5.67883 18.5542C6.03182 18.8791 6.22222 19.2959 6.32683 19.681C6.43234 20.0694 6.45761 20.4524 6.45761 20.7344C6.45761 20.7801 6.45695 20.8233 6.45583 20.8638C7.08975 20.8736 7.59998 21.2972 7.59998 21.8182V24.0455C7.59998 24.5726 7.07766 25 6.43331 25H1.76664C1.12231 25 0.599976 24.5726 0.599976 24.0455V21.8182C0.599976 21.2972 1.11018 20.8736 1.74412 20.8638ZM5.67781 20.8636C5.67906 20.8238 5.67984 20.7805 5.67984 20.7344C5.67984 20.4795 5.6565 20.1465 5.56756 19.819C5.47773 19.4882 5.32785 19.189 5.09751 18.977C4.87935 18.7762 4.57178 18.6364 4.09998 18.6364C3.62818 18.6364 3.3206 18.7762 3.10244 18.977C2.87209 19.189 2.72223 19.4882 2.63238 19.819C2.54344 20.1465 2.52011 20.4795 2.52011 20.7344C2.52011 20.7805 2.52088 20.8238 2.52212 20.8636H5.67781ZM6.8222 21.8182C6.8222 21.6424 6.64809 21.5 6.43331 21.5H1.76664C1.55187 21.5 1.37775 21.6424 1.37775 21.8182V24.0455C1.37775 24.2212 1.55187 24.3636 1.76664 24.3636H6.43331C6.64809 24.3636 6.8222 24.2212 6.8222 24.0455V21.8182Z" fill="#0D0000" stroke="#0D0000" stroke-width="0.4"/>
</g>
</g>
</svg>
