<svg width="24" height="24" viewBox="0 0 24 24" fill="none" xmlns="http://www.w3.org/2000/svg">
<g id="Wifi search">
<g id="Group">
<path id="Vector" d="M7.92259 3C6.36844 3 5.104 4.18263 5.104 5.63624C5.104 7.08986 6.36843 8.27244 7.92259 8.27244C13.1279 8.27244 17.3628 12.2333 17.3628 17.1019C17.3628 18.5555 18.6272 19.7381 20.1813 19.7381C21.7355 19.7381 22.9999 18.5555 22.9999 17.1019C22.9999 9.32605 16.2363 3 7.92259 3ZM20.1813 19.1504C18.9737 19.1504 17.9912 18.2314 17.9912 17.1019C17.9912 11.9092 13.4744 7.68469 7.9226 7.68469C6.7149 7.68469 5.73241 6.76577 5.73241 5.63623C5.73241 4.5067 6.7149 3.58773 7.9226 3.58773C15.8897 3.58773 22.3715 9.65012 22.3715 17.1018C22.3715 18.2314 21.389 19.1504 20.1813 19.1504Z" fill="#333333" stroke="#0D0000" stroke-width="0.9"/>
<path id="Vector_2" d="M6.93485 10.2192C5.93312 10.2192 5.11816 10.9815 5.11816 11.9184C5.11816 12.8554 5.93313 13.6176 6.93485 13.6176C9.52366 13.6176 11.6299 15.5875 11.6299 18.0089C11.6299 18.9458 12.4448 19.708 13.4466 19.708C14.4483 19.708 15.2633 18.9458 15.2633 18.0089C15.2633 13.7137 11.5272 10.2192 6.93485 10.2192ZM13.4466 19.1203C12.7914 19.1203 12.2583 18.6217 12.2583 18.0089C12.2583 15.2634 9.87022 13.0299 6.93486 13.0299C6.27963 13.0299 5.74657 12.5313 5.74657 11.9184C5.74657 11.3056 6.27964 10.807 6.93486 10.807C11.1807 10.807 14.6349 14.0377 14.6349 18.0089C14.6349 18.6217 14.1018 19.1203 13.4466 19.1203Z" fill="#333333" stroke="#0D0000" stroke-width="0.9"/>
<path id="Vector_3" d="M7.48332 15.3413C6.19619 15.3413 5.14905 16.3207 5.14905 17.5246C5.14905 18.7284 6.19619 19.7078 7.48332 19.7078C8.77046 19.7078 9.8176 18.7284 9.8176 17.5246C9.8176 16.3207 8.77046 15.3413 7.48332 15.3413ZM7.48332 19.1201C6.54269 19.1201 5.77745 18.4043 5.77745 17.5246C5.77745 16.6448 6.54269 15.9291 7.48332 15.9291C8.42395 15.9291 9.1892 16.6448 9.1892 17.5246C9.1892 18.4043 8.42395 19.1201 7.48332 19.1201Z" fill="#333333" stroke="#0D0000" stroke-width="0.9"/>
<line id="Line 1" y1="-0.75" x2="5.41927" y2="-0.75" transform="matrix(-0.83215 0.554551 -0.605984 -0.795477 5.50977 17.9946)" stroke="#0D0000" stroke-width="1.5"/>
</g>
</g>
</svg>
